<?xml version="1.0" encoding="iso-8859-1"?>
<!-- Generator: Adobe Illustrator 16.0.0, SVG Export Plug-In . SVG Version: 6.00 Build 0)  -->
<!DOCTYPE svg PUBLIC "-//W3C//DTD SVG 1.1//EN" "http://www.w3.org/Graphics/SVG/1.1/DTD/svg11.dtd">
<svg version="1.1" xmlns="http://www.w3.org/2000/svg" xmlns:xlink="http://www.w3.org/1999/xlink" x="0px" y="0px" width="480px"
	 height="520px" viewBox="0 0 480 520" style="enable-background:new 0 0 480 520;" xml:space="preserve">
<g id="Layer_1">
	<path style="fill:#635C4A;" d="M479.552,151.994l-98.589-98.893L380,53.712v-0.386l-87.015-20.409
		c-10.997,6.456-30.22,10.746-52.335,10.746c-22.224,0-41.323-4.333-52.288-10.842L100,53.327v0.386l-0.907-0.611L0.708,151.994
		l78.093,78.941L119,190.143V487h242V191.699l39.557,39.236L479.552,151.994z"/>
	<g>
		<path style="fill-rule:evenodd;clip-rule:evenodd;fill:#B5AD8D;" d="M194.507,286c5.429,2.5,11.243,4.406,16.159,7.68
			c3.99,2.656,7.024,6.824,10.213,10.553c1.225,1.428,1.698,3.495,2.591,5.443c1.925-0.246,3.64-0.467,6.476-0.83
			c-2.643,52.969-5.266,105.507-7.928,158.875c-9.933-1.799-19.553-3.473-29.153-5.279c-23.76-4.475-47.51-9.01-71.271-13.496
			c-0.503-0.098-1.06,0.062-1.593,0.104c0-0.36,0-0.721,0-1.076c0.399-0.99,1.023-1.949,1.156-2.966
			c4.04-30.753,7.89-61.524,12.087-92.252c2.27-16.62-1.542-14.105,15.548-19.003c5.816-1.667,8.738-4.506,10.409-10.42
			c4.871-17.244,13.436-31.727,32.067-37.332C192.348,286,193.429,286,194.507,286z M198.512,371.463
			c1.619-4.897,2.985-10.107,5.06-15.016c1.989-4.705-0.21-6.022-4.169-6.958c-10.083-2.39-19.668-0.827-28.845,3.538
			c-17.583,8.373-26.227,35.869-6.562,50.415c2.011,1.485,3.813,3.286,5.592,5.062c2.915,2.912,4.345,6.471,2.229,10.234
			c-2.312,4.113-6.366,3.71-10.023,2.229c-4.415-1.783-8.616-4.093-12.906-6.174c-7.39,14.967-4.341,21.7,11.599,25.659
			c15.36,3.812,28.631-1.257,34.223-13.075c6.929-14.654,3.229-28.588-10.209-38.471c-2.316-1.707-4.633-3.41-6.917-5.16
			c-3.191-2.46-5.044-6.1-2.929-9.391c1.549-2.406,5.259-4.555,8.128-4.725C187.666,369.333,192.646,370.682,198.512,371.463z
			 M197.446,293.441c-15.575-6.44-32.988,19.198-33.216,35.152c4.04-1.223,8.027-2.217,11.818-3.705
			c1.211-0.478,2.381-2.135,2.752-3.477C181.856,310.334,185.795,299.88,197.446,293.441z M200.188,298.506
			c-9.109,4.969-12.949,13.082-15.396,22.684c17.861-1.746,21.88-7.31,16.319-21.686
			C201.053,299.352,200.877,299.243,200.188,298.506z M217.865,311.648c-1.733-9.057-4.946-13.01-10.889-13.387
			c0.68,5.241,1.355,10.412,2.109,16.213C212.393,313.41,215.157,312.52,217.865,311.648z"/>
		<path style="fill-rule:evenodd;clip-rule:evenodd;fill:#404D41;" d="M233.875,310.461c1.206,0.819,1.78,1.021,2.062,1.43
			c4.733,6.916,11.719,8.891,19.545,8.74c3.485-0.066,4.475,1.495,4.939,4.74c3.368,23.416,6.955,46.799,10.438,70.201
			c2.746,18.436,5.354,36.896,8.233,55.314c0.547,3.475,0.228,5.069-3.725,5.871c-16.115,3.271-32.151,6.944-49.214,10.688
			C228.741,414.905,231.291,363.058,233.875,310.461z"/>
	</g>
	<g>
		<path style="fill-rule:evenodd;clip-rule:evenodd;fill:#B5AD8D;" d="M245.909,152.823c-0.517,2.583-1.011,5.115-1.533,7.641
			c-0.668,3.234-0.204,2.586-3.127,2.709c-1.38,0.058-2.763,0.009-4.489,0.009c0.437-2.476,0.841-4.826,1.267-7.171
			c1.668-9.169,3.377-18.333,4.972-27.516c0.219-1.263,0.687-1.636,1.855-1.588c1.439,0.061,2.882,0.016,4.446,0.016
			c-0.069,1.417-0.128,2.588-0.187,3.757c0.241,0.18,0.481,0.36,0.723,0.54c0.275-0.53,0.415-1.273,0.852-1.551
			c1.652-1.056,3.305-2.483,5.131-2.82c4.593-0.847,7.867,1.439,8.457,6.062c0.943,7.363-0.978,13.858-7.207,18.506
			c-2.6,1.941-5.562,2.594-8.778,1.822C247.592,153.071,246.873,152.989,245.909,152.823z M257.006,137.042
			c0-0.425,0.012-0.85-0.002-1.273c-0.049-1.486-0.479-3.059-2-3.283c-1.199-0.175-2.832,0.264-3.737,1.048
			c-1.122,0.971-1.994,2.485-2.433,3.932c-0.824,2.708-1.242,5.537-1.863,8.309c-0.256,1.146,0.339,1.694,1.288,2.041
			c2.174,0.794,4.323,0.014,5.958-2.277C256.023,143.008,256.931,140.151,257.006,137.042z"/>
		<path style="fill-rule:evenodd;clip-rule:evenodd;fill:#B5AD8D;" d="M186.117,152.826c2.381-12.472,4.713-24.684,7.052-36.938
			c2.36,0,4.522,0,6.935,0c-0.904,4.821-1.787,9.526-2.775,14.797c0.877-0.76,1.322-1.132,1.753-1.52
			c1.989-1.788,4.292-2.655,6.988-2.501c2.962,0.168,5.161,2.066,5.071,5.079c-0.1,3.43-0.628,6.856-1.141,10.258
			c-0.469,3.11-1.205,6.18-1.738,9.281c-0.203,1.187-0.717,1.634-1.928,1.568c-1.677-0.092-3.361-0.023-5.344-0.023
			c0.514-2.829,0.986-5.368,1.432-7.912c0.53-3.042,1.173-6.073,1.475-9.138c0.101-1.032-0.406-2.716-1.146-3.09
			c-0.875-0.441-2.548-0.146-3.443,0.465c-2.528,1.723-3.188,4.623-3.793,7.415c-0.783,3.607-1.462,7.238-2.088,10.877
			c-0.179,1.045-0.533,1.452-1.619,1.404C190.004,152.767,188.193,152.826,186.117,152.826z"/>
		<path style="fill-rule:evenodd;clip-rule:evenodd;fill:#B5AD8D;" d="M307.277,144.545c0.479-1.286,0.953-2.575,1.439-3.859
			c1.563-4.135,3.155-8.26,4.68-12.409c0.34-0.928,0.808-1.392,1.83-1.366c1.849,0.048,3.699,0.014,5.425,0.014
			c0.134,0.38,0.188,0.455,0.169,0.492c-4.778,10.057-8.512,20.646-15.105,29.774c-2.201,3.046-4.945,5.476-8.47,6.965
			c-1.189,0.502-1.766,0.315-2.091-0.978c-0.353-1.401-0.881-2.757-1.378-4.274c1.025-0.542,2.149-0.92,2.995-1.631
			c1.606-1.347,3.149-2.8,4.516-4.384c0.499-0.576,0.696-1.698,0.562-2.491c-1.228-7.157-2.519-14.305-3.889-21.436
			c-0.295-1.536,0.012-2.175,1.634-2.057c1.026,0.076,2.062,0.01,3.095,0.014c2.348,0.011,2.378,0.095,2.591,2.438
			c0.459,5.057,0.978,10.108,1.472,15.162C306.928,144.529,307.103,144.537,307.277,144.545z"/>
		<path style="fill-rule:evenodd;clip-rule:evenodd;fill:#B5AD8D;" d="M237.916,137.35c-0.318,5.954-2.396,10.986-7.724,14.188
			c-3.233,1.945-6.791,2.296-10.347,1.181c-3.828-1.203-5.789-4.18-6.16-8.023c-0.575-5.95,1.865-13.062,7.901-16.466
			c2.973-1.677,6.168-2.165,9.475-1.332C235.666,128.06,238.182,131.986,237.916,137.35z M231.143,137.441
			c-0.187-3.117-1.018-4.932-2.8-5.42c-2.046-0.561-3.986,0.49-5.398,3.058c-1.618,2.942-2.33,6.099-1.917,9.458
			c0.179,1.457,0.756,2.753,2.236,3.27c1.568,0.547,3.028,0.146,4.139-1.096c0.639-0.715,1.308-1.508,1.621-2.387
			C229.832,142.066,230.451,139.741,231.143,137.441z"/>
		<path style="fill-rule:evenodd;clip-rule:evenodd;fill:#B5AD8D;" d="M299.008,115.706c-0.444,1.748-0.858,3.374-1.262,4.956
			c-5.047,0.225-6.262,1.273-6.964,6.103c1.541,0.09,3.071,0.18,4.812,0.282c-0.217,1.425-0.308,2.748-0.669,3.993
			c-0.126,0.433-0.901,0.92-1.412,0.96c-3.939,0.308-3.909,0.282-4.622,4.266c-0.98,5.469-2.016,10.927-3.041,16.46
			c-2.361,0-4.578,0-6.961,0c1.264-6.871,2.505-13.615,3.78-20.549c-1.184-0.084-2.067-0.147-3.225-0.23
			c0.239-1.408,0.321-2.798,0.769-4.058c0.17-0.478,1.175-0.897,1.814-0.921c1.252-0.046,1.721-0.471,2.03-1.738
			c0.452-1.854,1.099-3.743,2.069-5.374C288.671,115.574,294.129,113.863,299.008,115.706z"/>
		<path style="fill-rule:evenodd;clip-rule:evenodd;fill:#B5AD8D;" d="M184.176,132.48c-1.541-0.294-2.836-0.657-4.152-0.763
			c-1.583-0.129-3.166,0.195-3.738,1.921c-0.553,1.666,0.73,2.521,1.921,3.325c1.105,0.746,2.286,1.411,3.279,2.286
			c3.871,3.412,3.547,9.167-0.788,11.99c-4.307,2.802-8.971,2.531-13.622,0.904c-0.384-0.133-0.817-1.042-0.718-1.472
			c0.301-1.283,0.855-2.506,1.336-3.824c1.41,0.42,2.711,0.866,4.043,1.178c0.754,0.176,1.68,0.4,2.317,0.121
			c1.019-0.443,2.315-1.122,2.643-2.012c0.279-0.765-0.463-2.092-1.078-2.934c-0.544-0.742-1.528-1.166-2.33-1.71
			c-2.413-1.636-4.402-3.605-4.139-6.779c0.31-3.708,2.464-6.116,5.921-7.33c3.067-1.08,6.198-0.949,9.322-0.228
			c0.98,0.228,1.475,0.679,0.964,1.818C184.866,130.064,184.581,131.248,184.176,132.48z"/>
		<path style="fill-rule:evenodd;clip-rule:evenodd;fill:#B5AD8D;" d="M265.086,152.826c0.717-3.782,1.391-7.335,2.062-10.89
			c0.857-4.522,1.75-9.039,2.538-13.574c0.187-1.072,0.643-1.46,1.663-1.444c1.747,0.029,3.494,0.007,5.613,0.007
			c-0.476,2.698-0.878,5.109-1.33,7.51c-1.045,5.535-2.149,11.059-3.146,16.602c-0.231,1.285-0.637,1.93-2.079,1.819
			C268.729,152.728,267.034,152.826,265.086,152.826z"/>
		<path style="fill-rule:evenodd;clip-rule:evenodd;fill:#B5AD8D;" d="M274.539,123.679c-2.051,0.002-3.338-1.313-3.353-3.427
			c-0.016-2.421,1.696-4.195,4.027-4.174c1.993,0.018,3.422,1.459,3.426,3.447C278.643,121.88,276.868,123.676,274.539,123.679z"/>
	</g>
</g>
<g id="Layer_2" style="display:none;">
	<g style="display:inline;">
		<path style="fill-rule:evenodd;clip-rule:evenodd;" d="M160.675,231c1.513,0.697,3.134,1.229,4.504,2.141
			c1.112,0.74,1.958,1.902,2.847,2.941c0.342,0.398,0.474,0.975,0.723,1.518c0.536-0.068,1.014-0.13,1.805-0.231
			c-0.736,14.765-1.468,29.409-2.21,44.285c-2.769-0.501-5.45-0.968-8.126-1.472c-6.623-1.247-13.243-2.511-19.866-3.762
			c-0.141-0.027-0.296,0.018-0.444,0.029c0-0.101,0-0.201,0-0.301c0.111-0.275,0.285-0.543,0.322-0.826
			c1.126-8.572,2.199-17.149,3.369-25.715c0.633-4.633-0.43-3.932,4.334-5.297c1.621-0.465,2.436-1.256,2.901-2.904
			c1.357-4.807,3.745-8.844,8.938-10.406C160.072,231,160.374,231,160.675,231z M161.791,254.822
			c0.451-1.365,0.832-2.817,1.41-4.186c0.555-1.312-0.059-1.679-1.162-1.939c-2.811-0.666-5.482-0.23-8.04,0.986
			c-4.901,2.334-7.311,9.998-1.829,14.053c0.561,0.414,1.062,0.916,1.559,1.411c0.812,0.812,1.211,1.804,0.621,2.853
			c-0.645,1.146-1.774,1.034-2.794,0.621c-1.23-0.497-2.401-1.141-3.598-1.721c-2.06,4.172-1.21,6.049,3.233,7.152
			c4.281,1.062,7.98-0.351,9.539-3.645c1.932-4.085,0.9-7.969-2.846-10.724c-0.646-0.476-1.291-0.95-1.928-1.438
			c-0.89-0.686-1.406-1.7-0.816-2.617c0.432-0.671,1.466-1.27,2.266-1.317C158.768,254.229,160.156,254.604,161.791,254.822z
			 M161.494,233.074c-4.342-1.795-9.195,5.352-9.259,9.799c1.126-0.341,2.237-0.618,3.294-1.033
			c0.338-0.133,0.664-0.595,0.768-0.969C157.148,237.783,158.246,234.869,161.494,233.074z M162.258,234.486
			c-2.539,1.385-3.609,3.646-4.291,6.322c4.979-0.486,6.099-2.037,4.549-6.044C162.499,234.722,162.45,234.691,162.258,234.486z
			 M167.186,238.149c-0.483-2.524-1.379-3.626-3.035-3.731c0.189,1.461,0.378,2.902,0.588,4.52
			C165.66,238.641,166.431,238.393,167.186,238.149z"/>
		<path style="fill-rule:evenodd;clip-rule:evenodd;" d="M171.648,237.818c0.336,0.229,0.496,0.285,0.574,0.398
			c1.319,1.928,3.267,2.479,5.448,2.437c0.972-0.019,1.247,0.417,1.377,1.321c0.938,6.527,1.938,13.045,2.909,19.568
			c0.766,5.139,1.492,10.284,2.295,15.418c0.152,0.969,0.063,1.413-1.038,1.637c-4.492,0.912-8.962,1.936-13.718,2.979
			C170.217,266.932,170.928,252.479,171.648,237.818z"/>
		<path style="fill-rule:evenodd;clip-rule:evenodd;" d="M258.179,271.566c-0.427,2.132-0.834,4.221-1.266,6.306
			c-0.551,2.669-0.168,2.134-2.58,2.235c-1.139,0.048-2.28,0.008-3.705,0.008c0.36-2.043,0.694-3.982,1.046-5.918
			c1.376-7.566,2.786-15.129,4.103-22.707c0.181-1.042,0.566-1.35,1.531-1.311c1.188,0.05,2.378,0.013,3.669,0.013
			c-0.058,1.17-0.105,2.136-0.154,3.101c0.199,0.148,0.397,0.297,0.597,0.445c0.228-0.438,0.343-1.051,0.703-1.28
			c1.363-0.871,2.727-2.049,4.233-2.327c3.79-0.699,6.492,1.188,6.979,5.002c0.778,6.076-0.807,11.437-5.947,15.271
			c-2.146,1.602-4.59,2.141-7.244,1.504C259.567,271.771,258.974,271.703,258.179,271.566z M267.336,258.543
			c0-0.351,0.01-0.701-0.002-1.051c-0.04-1.227-0.395-2.524-1.65-2.709c-0.989-0.145-2.337,0.218-3.084,0.865
			c-0.926,0.801-1.646,2.051-2.008,3.244c-0.68,2.234-1.024,4.569-1.537,6.856c-0.211,0.946,0.279,1.398,1.062,1.685
			c1.794,0.655,3.568,0.012,4.917-1.879C266.525,263.467,267.273,261.109,267.336,258.543z"/>
		<path style="fill-rule:evenodd;clip-rule:evenodd;" d="M208.837,271.568c1.965-10.292,3.89-20.369,5.819-30.482
			c1.947,0,3.732,0,5.723,0c-0.746,3.979-1.475,7.861-2.29,12.211c0.724-0.627,1.091-0.935,1.446-1.254
			c1.642-1.476,3.542-2.191,5.767-2.064c2.444,0.139,4.259,1.705,4.186,4.191c-0.083,2.83-0.519,5.658-0.941,8.465
			c-0.387,2.566-0.995,5.1-1.435,7.659c-0.168,0.979-0.592,1.349-1.591,1.294c-1.384-0.076-2.774-0.02-4.41-0.02
			c0.424-2.334,0.814-4.43,1.182-6.529c0.438-2.51,0.968-5.012,1.217-7.541c0.083-0.852-0.335-2.241-0.946-2.55
			c-0.722-0.364-2.103-0.12-2.842,0.384c-2.086,1.422-2.631,3.814-3.13,6.119c-0.646,2.977-1.206,5.973-1.723,8.976
			c-0.147,0.862-0.44,1.198-1.336,1.159C212.044,271.52,210.551,271.568,208.837,271.568z"/>
		<path style="fill-rule:evenodd;clip-rule:evenodd;" d="M308.821,264.735c0.396-1.062,0.786-2.125,1.188-3.185
			c1.29-3.412,2.604-6.816,3.861-10.24c0.281-0.766,0.667-1.148,1.511-1.127c1.525,0.04,3.053,0.012,4.477,0.012
			c0.11,0.313,0.155,0.375,0.14,0.406c-3.943,8.299-7.024,17.037-12.466,24.57c-1.816,2.514-4.081,4.519-6.989,5.748
			c-0.981,0.414-1.457,0.26-1.726-0.807c-0.291-1.156-0.727-2.275-1.137-3.527c0.846-0.447,1.773-0.76,2.472-1.346
			c1.325-1.111,2.599-2.311,3.727-3.618c0.411-0.476,0.574-1.401,0.463-2.056c-1.013-5.906-2.078-11.805-3.209-17.689
			c-0.243-1.268,0.01-1.795,1.349-1.697c0.847,0.062,1.702,0.008,2.554,0.012c1.938,0.009,1.962,0.078,2.138,2.012
			c0.379,4.173,0.807,8.342,1.215,12.512C308.532,264.722,308.677,264.729,308.821,264.735z"/>
		<path style="fill-rule:evenodd;clip-rule:evenodd;" d="M251.582,258.798c-0.263,4.913-1.977,9.065-6.373,11.708
			c-2.669,1.605-5.604,1.895-8.538,0.975c-3.159-0.992-4.777-3.449-5.084-6.621c-0.475-4.91,1.539-10.779,6.521-13.588
			c2.453-1.384,5.09-1.786,7.818-1.099C249.726,251.131,251.802,254.371,251.582,258.798z M245.993,258.873
			c-0.154-2.572-0.84-4.07-2.311-4.473c-1.688-0.463-3.29,0.404-4.455,2.523c-1.335,2.428-1.923,5.033-1.582,7.806
			c0.147,1.202,0.624,2.271,1.846,2.698c1.294,0.451,2.499,0.121,3.415-0.904c0.527-0.59,1.079-1.244,1.338-1.97
			C244.911,262.689,245.422,260.771,245.993,258.873z"/>
		<path style="fill-rule:evenodd;clip-rule:evenodd;" d="M301.997,240.937c-0.367,1.442-0.709,2.784-1.042,4.09
			c-4.164,0.186-5.167,1.051-5.746,5.036c1.271,0.074,2.534,0.148,3.971,0.232c-0.18,1.176-0.254,2.268-0.553,3.295
			c-0.104,0.357-0.743,0.76-1.165,0.793c-3.251,0.254-3.226,0.232-3.814,3.521c-0.809,4.513-1.663,9.017-2.509,13.583
			c-1.949,0-3.778,0-5.745,0c1.043-5.67,2.067-11.235,3.12-16.958c-0.977-0.069-1.706-0.121-2.661-0.189
			c0.197-1.162,0.265-2.31,0.634-3.349c0.141-0.395,0.97-0.74,1.498-0.76c1.033-0.038,1.42-0.389,1.675-1.435
			c0.373-1.53,0.907-3.089,1.708-4.435C293.467,240.827,297.971,239.416,301.997,240.937z"/>
		<path style="fill-rule:evenodd;clip-rule:evenodd;" d="M207.235,254.779c-1.272-0.243-2.341-0.542-3.427-0.63
			c-1.307-0.106-2.613,0.161-3.085,1.585c-0.456,1.375,0.603,2.08,1.585,2.744c0.912,0.615,1.887,1.164,2.706,1.887
			c3.194,2.815,2.927,7.564-0.65,9.895c-3.554,2.312-7.402,2.089-11.241,0.746c-0.316-0.109-0.675-0.86-0.592-1.215
			c0.248-1.059,0.705-2.068,1.102-3.155c1.164,0.347,2.237,0.715,3.337,0.972c0.622,0.146,1.386,0.33,1.912,0.1
			c0.841-0.365,1.911-0.926,2.181-1.66c0.23-0.631-0.382-1.727-0.89-2.421c-0.448-0.612-1.261-0.962-1.923-1.411
			c-1.991-1.35-3.633-2.975-3.415-5.594c0.255-3.061,2.033-5.047,4.886-6.049c2.531-0.891,5.115-0.783,7.693-0.188
			c0.809,0.188,1.217,0.561,0.795,1.5C207.805,252.785,207.569,253.762,207.235,254.779z"/>
		<path style="fill-rule:evenodd;clip-rule:evenodd;" d="M274.004,271.568c0.591-3.121,1.147-6.053,1.702-8.986
			c0.707-3.731,1.443-7.459,2.094-11.201c0.154-0.885,0.53-1.205,1.373-1.191c1.441,0.023,2.883,0.006,4.632,0.006
			c-0.393,2.227-0.725,4.216-1.098,6.197c-0.862,4.567-1.773,9.126-2.597,13.7c-0.19,1.061-0.525,1.593-1.716,1.501
			C277.01,271.487,275.611,271.568,274.004,271.568z"/>
		<path style="fill-rule:evenodd;clip-rule:evenodd;" d="M281.805,247.516c-1.692,0.002-2.755-1.084-2.767-2.828
			c-0.013-1.998,1.399-3.462,3.323-3.444c1.645,0.015,2.824,1.204,2.827,2.845C285.19,246.031,283.727,247.514,281.805,247.516z"/>
	</g>
</g>
</svg>
