<?xml version="1.0" encoding="iso-8859-1"?>
<!-- Generator: Adobe Illustrator 16.0.0, SVG Export Plug-In . SVG Version: 6.00 Build 0)  -->
<!DOCTYPE svg PUBLIC "-//W3C//DTD SVG 1.1//EN" "http://www.w3.org/Graphics/SVG/1.1/DTD/svg11.dtd">
<svg version="1.1" id="Layer_1" xmlns="http://www.w3.org/2000/svg" xmlns:xlink="http://www.w3.org/1999/xlink" x="0px" y="0px"
	 width="960px" height="560px" viewBox="0 0 960 560" style="enable-background:new 0 0 960 560;" xml:space="preserve">
<polygon style="fill:#A09A80;" points="232,448 85.61,448 123.153,409.5 85.61,371 232,371 "/>
<polygon style="fill:#7A7667;" points="232,447.143 162,385.379 162,310.293 232,372.057 "/>
<polygon style="fill:#A09A80;" points="724,448 870.391,448 832.848,409.5 870.391,371 724,371 "/>
<polygon style="fill:#7A7667;" points="724,447.143 794,385.379 794,310.293 724,372.057 "/>
<polygon style="fill:#B5AD8D;" points="478,311 162,311 162,388 478,388 794,388 794,311 "/>
<path style="fill:#FFFFFF;" d="M236.726,342.163c-3.969,0-7.199,3.229-7.199,7.2s3.23,7.201,7.199,7.201
	c3.969,0,7.199-3.23,7.199-7.201S240.695,342.163,236.726,342.163z"/>
<path style="fill:#FFFFFF;" d="M719.959,342.163c-3.971,0-7.201,3.229-7.201,7.2s3.23,7.201,7.201,7.201
	c3.967,0,7.197-3.23,7.197-7.201S723.926,342.163,719.959,342.163z"/>
<g>
	<path style="fill:#FFFFFF;" d="M283.819,336.416h12.504c0.023,0.138,0.041,0.311,0.052,0.513c0.012,0.202,0.02,0.394,0.02,0.581
		c0,0.168-0.007,0.363-0.02,0.586c-0.011,0.226-0.028,0.406-0.052,0.551h-10.06v8.607h8.714c0.023,0.138,0.04,0.312,0.052,0.514
		c0.013,0.2,0.018,0.396,0.018,0.582c0,0.167-0.005,0.363-0.018,0.585c-0.012,0.225-0.029,0.406-0.052,0.551h-8.714v12.395
		c-0.166,0.023-0.354,0.041-0.567,0.055c-0.212,0.012-0.425,0.018-0.638,0.018c-0.236,0-0.465-0.006-0.69-0.018
		c-0.225-0.014-0.408-0.031-0.549-0.055V336.416z"/>
	<path style="fill:#FFFFFF;" d="M300.433,343.818c0.189-0.023,0.372-0.04,0.549-0.056c0.176-0.012,0.347-0.017,0.513-0.017
		c0.188,0,0.366,0.005,0.532,0.017c0.164,0.016,0.341,0.032,0.531,0.056c0.047,0.425,0.082,0.926,0.106,1.503
		c0.023,0.577,0.037,1.105,0.037,1.575c0.471-0.871,1.132-1.609,1.983-2.214c0.851-0.6,1.972-0.899,3.366-0.899
		c0.117,0,0.24,0,0.372,0c0.127,0,0.276,0.012,0.442,0.035c0.071,0.4,0.107,0.777,0.107,1.132c0,0.379-0.036,0.745-0.107,1.099
		c-0.19-0.023-0.337-0.034-0.442-0.034c-0.107,0-0.219,0-0.338,0c-1.605,0-2.893,0.507-3.861,1.522
		c-0.968,1.015-1.451,2.703-1.451,5.064v9.278c-0.143,0.023-0.337,0.041-0.585,0.055c-0.248,0.012-0.442,0.018-0.583,0.018
		c-0.118,0-0.308-0.006-0.568-0.018c-0.26-0.014-0.46-0.031-0.602-0.055V343.818z"/>
	<path style="fill:#FFFFFF;" d="M319.346,362.308c-1.346,0-2.526-0.242-3.541-0.727c-1.017-0.483-1.861-1.154-2.533-2.001
		c-0.672-0.851-1.176-1.854-1.506-3.01c-0.332-1.157-0.496-2.397-0.496-3.722c0-1.322,0.164-2.562,0.496-3.718
		c0.33-1.155,0.833-2.159,1.506-3.013c0.672-0.848,1.517-1.517,2.533-2c1.014-0.484,2.194-0.727,3.541-0.727
		c1.347,0,2.521,0.242,3.526,0.727c1.002,0.483,1.841,1.152,2.515,2c0.671,0.854,1.181,1.857,1.522,3.013
		c0.343,1.155,0.514,2.396,0.514,3.718c0,1.324-0.171,2.564-0.514,3.722c-0.341,1.156-0.851,2.159-1.522,3.01
		c-0.673,0.847-1.512,1.518-2.515,2.001C321.867,362.065,320.692,362.308,319.346,362.308z M319.346,360.254
		c1.89,0,3.301-0.663,4.234-1.986c0.933-1.322,1.399-3.126,1.399-5.419c0-2.291-0.466-4.096-1.399-5.418
		c-0.933-1.323-2.344-1.984-4.234-1.984c-1.889,0-3.299,0.661-4.233,1.984c-0.932,1.322-1.398,3.127-1.398,5.418
		c0,2.293,0.466,4.097,1.398,5.419C316.047,359.591,317.457,360.254,319.346,360.254z"/>
	<path style="fill:#FFFFFF;" d="M332.629,343.818c0.189-0.023,0.372-0.04,0.549-0.056c0.176-0.012,0.347-0.017,0.513-0.017
		c0.189,0,0.366,0.005,0.532,0.017c0.164,0.016,0.341,0.032,0.531,0.056c0.047,0.425,0.082,0.957,0.106,1.591
		c0.023,0.64,0.037,1.193,0.037,1.667c0.235-0.428,0.542-0.854,0.92-1.293c0.376-0.437,0.82-0.833,1.328-1.188
		c0.508-0.353,1.093-0.643,1.753-0.867c0.661-0.226,1.381-0.337,2.161-0.337c2.077,0,3.589,0.62,4.534,1.862
		c0.944,1.238,1.417,2.98,1.417,5.224v11.402c-0.143,0.023-0.337,0.041-0.585,0.055c-0.248,0.012-0.442,0.018-0.584,0.018
		c-0.12,0-0.308-0.006-0.568-0.018c-0.259-0.014-0.46-0.031-0.601-0.055v-10.693c0-2.006-0.314-3.448-0.94-4.324
		c-0.625-0.871-1.563-1.31-2.816-1.31c-0.826,0-1.605,0.165-2.338,0.496c-0.732,0.329-1.364,0.808-1.894,1.436
		c-0.532,0.623-0.951,1.398-1.258,2.318c-0.308,0.922-0.46,1.972-0.46,3.152v8.925c-0.143,0.023-0.337,0.041-0.585,0.055
		c-0.248,0.012-0.443,0.018-0.583,0.018c-0.118,0-0.308-0.006-0.568-0.018c-0.26-0.014-0.46-0.031-0.602-0.055V343.818z"/>
	<path style="fill:#FFFFFF;" d="M353.704,345.801h-3.082c-0.024-0.118-0.042-0.271-0.053-0.462
		c-0.011-0.188-0.018-0.376-0.018-0.563c0-0.191,0.006-0.37,0.018-0.532c0.012-0.166,0.029-0.31,0.053-0.425h3.082v-3.401
		l2.197-2.163h0.142v5.564h4.887c0.024,0.115,0.042,0.259,0.054,0.425c0.011,0.162,0.018,0.341,0.018,0.532
		c0,0.188-0.007,0.375-0.018,0.563c-0.012,0.191-0.029,0.344-0.054,0.462h-4.887v11.761c0,0.589,0.076,1.057,0.23,1.396
		c0.153,0.346,0.353,0.611,0.602,0.798c0.249,0.189,0.531,0.314,0.85,0.373c0.318,0.061,0.644,0.089,0.974,0.089
		c0.826,0,1.547-0.106,2.161-0.32c0.166,0.615,0.284,1.273,0.354,1.982c-0.851,0.26-1.842,0.393-2.975,0.393
		c-1.347,0-2.439-0.363-3.278-1.082c-0.837-0.721-1.257-1.893-1.257-3.525V345.801z"/>
	<path style="fill:#FFFFFF;" d="M374.212,336.416h13.638c0.023,0.138,0.041,0.311,0.054,0.513c0.011,0.202,0.017,0.394,0.017,0.581
		c0,0.168-0.006,0.363-0.017,0.586c-0.013,0.226-0.031,0.406-0.054,0.551h-11.194v8.607h8.997c0.023,0.138,0.042,0.312,0.054,0.514
		c0.011,0.2,0.017,0.396,0.017,0.582c0,0.167-0.006,0.363-0.017,0.585c-0.012,0.225-0.03,0.406-0.054,0.551h-8.997v10.163h11.512
		c0.024,0.145,0.042,0.314,0.054,0.515s0.018,0.396,0.018,0.588c0,0.16-0.006,0.356-0.018,0.581
		c-0.012,0.226-0.03,0.409-0.054,0.548h-13.956V336.416z"/>
	<path style="fill:#FFFFFF;" d="M392.88,343.818c0.189-0.023,0.372-0.04,0.549-0.056c0.176-0.012,0.348-0.017,0.513-0.017
		c0.188,0,0.366,0.005,0.532,0.017c0.165,0.016,0.342,0.032,0.53,0.056c0.048,0.425,0.083,0.957,0.106,1.591
		c0.023,0.64,0.037,1.193,0.037,1.667c0.235-0.428,0.542-0.854,0.921-1.293c0.376-0.437,0.819-0.833,1.327-1.188
		c0.508-0.353,1.093-0.643,1.754-0.867c0.66-0.226,1.38-0.337,2.16-0.337c2.078,0,3.589,0.62,4.535,1.862
		c0.943,1.238,1.417,2.98,1.417,5.224v11.402c-0.143,0.023-0.338,0.041-0.586,0.055c-0.248,0.012-0.441,0.018-0.583,0.018
		c-0.12,0-0.309-0.006-0.568-0.018c-0.26-0.014-0.46-0.031-0.602-0.055v-10.693c0-2.006-0.313-3.448-0.939-4.324
		c-0.625-0.871-1.564-1.31-2.816-1.31c-0.826,0-1.606,0.165-2.338,0.496c-0.732,0.329-1.363,0.808-1.894,1.436
		c-0.533,0.623-0.951,1.398-1.259,2.318c-0.306,0.922-0.459,1.972-0.459,3.152v8.925c-0.143,0.023-0.337,0.041-0.585,0.055
		c-0.248,0.012-0.442,0.018-0.583,0.018c-0.118,0-0.307-0.006-0.568-0.018c-0.259-0.014-0.46-0.031-0.601-0.055V343.818z"/>
	<path style="fill:#FFFFFF;" d="M425.29,335.848c0.143-0.022,0.343-0.044,0.602-0.055c0.26-0.012,0.448-0.018,0.566-0.018
		c0.143,0,0.337,0.006,0.585,0.018c0.248,0.011,0.442,0.032,0.583,0.055v25.608c-0.732,0.236-1.642,0.436-2.727,0.603
		c-1.087,0.165-2.22,0.249-3.4,0.249c-1.3,0-2.515-0.155-3.649-0.463c-1.133-0.305-2.113-0.812-2.94-1.521
		c-0.826-0.71-1.482-1.644-1.965-2.799c-0.484-1.157-0.726-2.587-0.726-4.286c0-1.558,0.212-2.947,0.637-4.163
		c0.424-1.217,1.027-2.243,1.806-3.079c0.78-0.842,1.718-1.481,2.816-1.931c1.099-0.45,2.309-0.675,3.631-0.675
		c0.78,0,1.552,0.065,2.32,0.196c0.767,0.129,1.387,0.276,1.86,0.444V335.848z M425.29,346.226
		c-0.473-0.188-1.074-0.361-1.806-0.514c-0.732-0.153-1.488-0.23-2.268-0.23c-1.11,0-2.072,0.19-2.887,0.567
		c-0.815,0.378-1.493,0.902-2.037,1.573c-0.543,0.676-0.951,1.486-1.222,2.428c-0.271,0.946-0.408,1.983-0.408,3.119
		c0,2.457,0.585,4.243,1.754,5.366c1.169,1.119,2.828,1.683,4.977,1.683c0.78,0,1.523-0.041,2.231-0.124
		c0.708-0.082,1.263-0.186,1.665-0.301V346.226z"/>
	<path style="fill:#FFFFFF;" d="M440.875,336.416c0.141-0.023,0.353-0.044,0.637-0.056c0.284-0.011,0.543-0.018,0.78-0.018
		c0.212,0,0.459,0.007,0.743,0.018c0.283,0.012,0.508,0.032,0.673,0.056l4.924,22.737l5.844-22.737
		c0.142-0.023,0.373-0.044,0.691-0.056c0.318-0.011,0.585-0.018,0.797-0.018c0.189,0,0.448,0.007,0.78,0.018
		c0.33,0.012,0.578,0.032,0.743,0.056l5.809,22.737l4.996-22.737c0.188-0.023,0.395-0.044,0.62-0.056
		c0.224-0.011,0.443-0.018,0.653-0.018c0.237,0,0.491,0.007,0.763,0.018c0.271,0.012,0.478,0.032,0.62,0.056l-6.163,25.464
		c-0.166,0.023-0.414,0.041-0.745,0.055c-0.33,0.012-0.602,0.018-0.815,0.018c-0.235,0-0.525-0.006-0.867-0.018
		c-0.343-0.014-0.597-0.031-0.761-0.055l-5.704-22.173l-5.667,22.173c-0.166,0.023-0.414,0.041-0.744,0.055
		c-0.331,0.012-0.602,0.018-0.815,0.018c-0.236,0-0.525-0.006-0.868-0.018c-0.342-0.014-0.597-0.031-0.761-0.055L440.875,336.416z"
		/>
	<path style="fill:#FFFFFF;" d="M475.411,353.204c0,2.409,0.554,4.18,1.664,5.312c1.11,1.132,2.775,1.701,4.995,1.701
		c0.898,0,1.729-0.079,2.497-0.231c0.766-0.152,1.518-0.36,2.248-0.619c0.119,0.259,0.213,0.578,0.284,0.957
		c0.071,0.377,0.117,0.721,0.142,1.025c-0.685,0.307-1.487,0.542-2.409,0.709c-0.92,0.165-1.924,0.249-3.01,0.249
		c-1.559,0-2.899-0.231-4.021-0.692c-1.122-0.462-2.043-1.103-2.762-1.932c-0.721-0.824-1.253-1.81-1.595-2.956
		c-0.343-1.143-0.513-2.402-0.513-3.772c0-1.322,0.158-2.562,0.477-3.719c0.32-1.157,0.804-2.174,1.453-3.046
		c0.649-0.873,1.482-1.561,2.498-2.055c1.014-0.495,2.23-0.744,3.648-0.744c1.18,0,2.23,0.2,3.152,0.603
		c0.921,0.401,1.694,0.962,2.319,1.681c0.627,0.72,1.098,1.584,1.418,2.588c0.317,1.003,0.478,2.096,0.478,3.274
		c0,0.214-0.007,0.484-0.018,0.815c-0.013,0.332-0.03,0.614-0.053,0.852H475.411z M486.037,351.255c0-0.732-0.095-1.452-0.283-2.161
		c-0.189-0.707-0.484-1.326-0.885-1.856c-0.402-0.533-0.922-0.964-1.561-1.296c-0.637-0.331-1.404-0.495-2.301-0.495
		c-1.653,0-2.94,0.508-3.862,1.525c-0.921,1.014-1.476,2.441-1.664,4.283H486.037z"/>
	<path style="fill:#FFFFFF;" d="M493.511,335.848c0.142-0.022,0.335-0.044,0.584-0.055c0.248-0.012,0.442-0.018,0.585-0.018
		c0.116,0,0.305,0.006,0.566,0.018c0.26,0.011,0.459,0.032,0.601,0.055v10.484c0.498-0.756,1.211-1.436,2.146-2.035
		c0.933-0.604,2.141-0.905,3.631-0.905c1.11,0,2.124,0.173,3.045,0.514c0.92,0.342,1.706,0.882,2.354,1.613
		c0.65,0.732,1.157,1.651,1.522,2.762c0.368,1.109,0.55,2.444,0.55,4.001c0,3.142-0.862,5.598-2.586,7.367
		c-1.723,1.772-4.213,2.659-7.472,2.659c-1.064,0-2.09-0.102-3.084-0.301c-0.99-0.2-1.805-0.421-2.442-0.657V335.848z
		 M495.847,359.722c0.544,0.187,1.117,0.325,1.72,0.407c0.602,0.082,1.245,0.125,1.93,0.125c0.944,0,1.847-0.156,2.709-0.461
		c0.863-0.308,1.619-0.781,2.269-1.419c0.648-0.636,1.168-1.446,1.558-2.426c0.391-0.979,0.585-2.153,0.585-3.522
		c0-2.151-0.408-3.84-1.223-5.069c-0.813-1.228-2.132-1.838-3.948-1.838c-0.568,0-1.182,0.092-1.842,0.282
		c-0.662,0.19-1.271,0.507-1.824,0.957c-0.557,0.446-1.018,1.044-1.381,1.787c-0.368,0.744-0.552,1.685-0.552,2.815V359.722z"/>
	<path style="fill:#FFFFFF;" d="M523.726,336.416c0.329-0.049,0.737-0.097,1.222-0.145c0.483-0.046,0.998-0.087,1.54-0.122
		c0.544-0.037,1.088-0.065,1.632-0.091c0.541-0.024,1.037-0.034,1.486-0.034c2.22,0,4.149,0.299,5.791,0.904
		c1.641,0.599,2.998,1.464,4.072,2.583c1.076,1.124,1.873,2.493,2.391,4.111c0.521,1.619,0.78,3.439,0.78,5.471
		c0,8.809-4.345,13.214-13.034,13.214c-0.497,0-1.028-0.013-1.594-0.035c-0.566-0.022-1.115-0.055-1.647-0.09
		c-0.533-0.037-1.028-0.083-1.487-0.142c-0.462-0.057-0.846-0.112-1.151-0.161V336.416z M526.169,359.756
		c0.425,0.049,0.928,0.096,1.505,0.142c0.58,0.048,1.175,0.072,1.789,0.072c1.63,0,3.1-0.177,4.41-0.533
		c1.312-0.353,2.427-0.955,3.349-1.805c0.921-0.851,1.627-1.978,2.124-3.386c0.495-1.402,0.744-3.155,0.744-5.257
		c0-3.66-0.938-6.349-2.816-8.061c-1.877-1.711-4.479-2.564-7.811-2.564c-0.544,0-1.128,0.011-1.753,0.034s-1.142,0.069-1.541,0.138
		V359.756z"/>
	<path style="fill:#FFFFFF;" d="M549.511,353.204c0,2.409,0.557,4.18,1.665,5.312c1.11,1.132,2.774,1.701,4.994,1.701
		c0.897,0,1.729-0.079,2.498-0.231c0.767-0.152,1.517-0.36,2.249-0.619c0.118,0.259,0.214,0.578,0.284,0.957
		c0.07,0.377,0.117,0.721,0.141,1.025c-0.686,0.307-1.487,0.542-2.409,0.709c-0.92,0.165-1.923,0.249-3.011,0.249
		c-1.558,0-2.898-0.231-4.02-0.692c-1.123-0.462-2.044-1.103-2.764-1.932c-0.721-0.824-1.252-1.81-1.593-2.956
		c-0.343-1.143-0.514-2.402-0.514-3.772c0-1.322,0.158-2.562,0.478-3.719c0.32-1.157,0.802-2.174,1.452-3.046
		c0.648-0.873,1.482-1.561,2.499-2.055c1.014-0.495,2.23-0.744,3.646-0.744c1.18,0,2.232,0.2,3.151,0.603
		c0.922,0.401,1.695,0.962,2.322,1.681c0.625,0.72,1.097,1.584,1.416,2.588c0.318,1.003,0.479,2.096,0.479,3.274
		c0,0.214-0.007,0.484-0.019,0.815c-0.012,0.332-0.028,0.614-0.053,0.852H549.511z M560.138,351.255
		c0-0.732-0.095-1.452-0.283-2.161c-0.188-0.707-0.485-1.326-0.886-1.856c-0.402-0.533-0.92-0.964-1.559-1.296
		c-0.638-0.331-1.406-0.495-2.303-0.495c-1.653,0-2.94,0.508-3.86,1.525c-0.921,1.014-1.477,2.441-1.665,4.283H560.138z"/>
	<path style="fill:#FFFFFF;" d="M564.707,343.818c0.141-0.023,0.341-0.04,0.603-0.056c0.26-0.012,0.509-0.017,0.743-0.017
		c0.188,0,0.426,0.005,0.709,0.017c0.283,0.016,0.495,0.032,0.638,0.056l5.702,15.618l5.809-15.618
		c0.142-0.023,0.33-0.04,0.567-0.056c0.236-0.012,0.449-0.017,0.639-0.017c0.188,0,0.4,0.005,0.638,0.017
		c0.233,0.016,0.425,0.032,0.564,0.056l-7.189,18.062c-0.354,0.072-0.722,0.109-1.099,0.109c-0.378,0-0.754-0.037-1.134-0.109
		L564.707,343.818z"/>
	<path style="fill:#FFFFFF;" d="M586.138,353.204c0,2.409,0.556,4.18,1.665,5.312c1.11,1.132,2.774,1.701,4.993,1.701
		c0.898,0,1.73-0.079,2.499-0.231c0.767-0.152,1.516-0.36,2.248-0.619c0.118,0.259,0.214,0.578,0.284,0.957
		c0.07,0.377,0.118,0.721,0.14,1.025c-0.684,0.307-1.485,0.542-2.408,0.709c-0.919,0.165-1.922,0.249-3.01,0.249
		c-1.558,0-2.898-0.231-4.021-0.692c-1.121-0.462-2.042-1.103-2.762-1.932c-0.721-0.824-1.252-1.81-1.593-2.956
		c-0.344-1.143-0.515-2.402-0.515-3.772c0-1.322,0.159-2.562,0.479-3.719c0.319-1.157,0.802-2.174,1.452-3.046
		c0.647-0.873,1.481-1.561,2.498-2.055c1.015-0.495,2.23-0.744,3.646-0.744c1.181,0,2.232,0.2,3.152,0.603
		c0.922,0.401,1.695,0.962,2.321,1.681c0.625,0.72,1.097,1.584,1.417,2.588c0.317,1.003,0.479,2.096,0.479,3.274
		c0,0.214-0.008,0.484-0.019,0.815c-0.012,0.332-0.029,0.614-0.053,0.852H586.138z M596.764,351.255
		c0-0.732-0.095-1.452-0.282-2.161c-0.189-0.707-0.485-1.326-0.887-1.856c-0.401-0.533-0.92-0.964-1.559-1.296
		c-0.637-0.331-1.405-0.495-2.303-0.495c-1.652,0-2.939,0.508-3.86,1.525c-0.921,1.014-1.476,2.441-1.664,4.283H596.764z"/>
	<path style="fill:#FFFFFF;" d="M604.238,335.848c0.141-0.022,0.334-0.044,0.583-0.055c0.248-0.012,0.442-0.018,0.585-0.018
		c0.116,0,0.306,0.006,0.566,0.018c0.26,0.011,0.461,0.032,0.603,0.055V357.7c0,0.618,0.071,1.097,0.212,1.436
		c0.143,0.344,0.32,0.592,0.532,0.744c0.213,0.155,0.447,0.249,0.707,0.283c0.261,0.037,0.497,0.055,0.709,0.055
		c0.259,0,0.53-0.018,0.815-0.055c0.284-0.034,0.518-0.075,0.709-0.121c0.116,0.282,0.199,0.588,0.249,0.919
		c0.045,0.331,0.081,0.637,0.104,0.919c-0.331,0.122-0.702,0.203-1.116,0.249c-0.414,0.049-0.798,0.071-1.15,0.071
		c-0.497,0-0.992-0.055-1.488-0.159c-0.496-0.106-0.938-0.305-1.327-0.603c-0.392-0.296-0.703-0.694-0.941-1.203
		c-0.235-0.508-0.352-1.173-0.352-2.003V335.848z"/>
	<path style="fill:#FFFFFF;" d="M621.168,362.308c-1.345,0-2.525-0.242-3.541-0.727c-1.017-0.483-1.86-1.154-2.532-2.001
		c-0.672-0.851-1.176-1.854-1.506-3.01c-0.332-1.157-0.495-2.397-0.495-3.722c0-1.322,0.163-2.562,0.495-3.718
		c0.33-1.155,0.834-2.159,1.506-3.013c0.672-0.848,1.516-1.517,2.532-2c1.016-0.484,2.196-0.727,3.541-0.727
		c1.347,0,2.521,0.242,3.525,0.727c1.003,0.483,1.843,1.152,2.517,2c0.67,0.854,1.18,1.857,1.521,3.013
		c0.344,1.155,0.516,2.396,0.516,3.718c0,1.324-0.172,2.564-0.516,3.722c-0.341,1.156-0.851,2.159-1.521,3.01
		c-0.674,0.847-1.514,1.518-2.517,2.001C623.689,362.065,622.515,362.308,621.168,362.308z M621.168,360.254
		c1.89,0,3.302-0.663,4.233-1.986c0.933-1.322,1.4-3.126,1.4-5.419c0-2.291-0.468-4.096-1.4-5.418
		c-0.932-1.323-2.344-1.984-4.233-1.984c-1.888,0-3.298,0.661-4.232,1.984c-0.933,1.322-1.398,3.127-1.398,5.418
		c0,2.293,0.466,4.097,1.398,5.419C617.87,359.591,619.28,360.254,621.168,360.254z"/>
	<path style="fill:#FFFFFF;" d="M634.451,343.818c0.142-0.023,0.319-0.04,0.53-0.056c0.214-0.012,0.392-0.017,0.533-0.017
		c0.141,0,0.318,0.005,0.532,0.017c0.211,0.016,0.389,0.032,0.529,0.056l0.214,2.479c0.496-0.756,1.209-1.43,2.143-2.018
		c0.934-0.594,2.142-0.888,3.63-0.888c1.111,0,2.125,0.173,3.046,0.514c0.923,0.342,1.707,0.882,2.356,1.613
		c0.648,0.732,1.157,1.651,1.522,2.762c0.366,1.109,0.55,2.444,0.55,4.001c0,1.561-0.212,2.957-0.638,4.197
		c-0.426,1.238-1.045,2.295-1.859,3.153c-0.815,0.864-1.818,1.521-3.011,1.983c-1.193,0.461-2.557,0.692-4.092,0.692
		c-0.566,0-1.18-0.047-1.843-0.142c-0.66-0.095-1.264-0.237-1.805-0.425v8.499c-0.143,0.022-0.344,0.04-0.603,0.055
		c-0.262,0.011-0.45,0.018-0.567,0.018c-0.142,0-0.336-0.007-0.585-0.018c-0.247-0.015-0.442-0.032-0.584-0.055V343.818z
		 M636.79,359.58c0.541,0.213,1.103,0.372,1.682,0.479c0.578,0.104,1.352,0.159,2.319,0.159c0.923,0,1.796-0.147,2.622-0.442
		c0.827-0.296,1.547-0.764,2.161-1.401c0.613-0.636,1.097-1.446,1.452-2.426c0.354-0.979,0.531-2.153,0.531-3.522
		c0-2.175-0.408-3.874-1.222-5.103c-0.814-1.229-2.132-1.842-3.949-1.842c-0.568,0-1.183,0.095-1.843,0.284
		c-0.661,0.188-1.269,0.515-1.824,0.976c-0.555,0.458-1.016,1.061-1.381,1.804c-0.367,0.744-0.549,1.685-0.549,2.815V359.58z"/>
	<path style="fill:#FFFFFF;" d="M656.803,353.204c0,2.409,0.555,4.18,1.663,5.312c1.11,1.132,2.776,1.701,4.995,1.701
		c0.898,0,1.729-0.079,2.498-0.231c0.767-0.152,1.517-0.36,2.248-0.619c0.117,0.259,0.214,0.578,0.284,0.957
		c0.07,0.377,0.118,0.721,0.142,1.025c-0.686,0.307-1.488,0.542-2.408,0.709c-0.922,0.165-1.924,0.249-3.011,0.249
		c-1.559,0-2.899-0.231-4.021-0.692c-1.124-0.462-2.043-1.103-2.764-1.932c-0.72-0.824-1.251-1.81-1.594-2.956
		c-0.342-1.143-0.514-2.402-0.514-3.772c0-1.322,0.159-2.562,0.479-3.719c0.319-1.157,0.803-2.174,1.453-3.046
		c0.648-0.873,1.482-1.561,2.497-2.055c1.014-0.495,2.231-0.744,3.648-0.744c1.18,0,2.23,0.2,3.151,0.603
		c0.922,0.401,1.695,0.962,2.321,1.681c0.626,0.72,1.098,1.584,1.416,2.588c0.319,1.003,0.479,2.096,0.479,3.274
		c0,0.214-0.008,0.484-0.02,0.815c-0.012,0.332-0.028,0.614-0.052,0.852H656.803z M667.429,351.255c0-0.732-0.094-1.452-0.284-2.161
		c-0.188-0.707-0.483-1.326-0.885-1.856c-0.402-0.533-0.921-0.964-1.56-1.296c-0.637-0.331-1.404-0.495-2.301-0.495
		c-1.654,0-2.94,0.508-3.862,1.525c-0.921,1.014-1.475,2.441-1.663,4.283H667.429z"/>
	<path style="fill:#FFFFFF;" d="M674.902,343.818c0.188-0.023,0.372-0.04,0.55-0.056c0.176-0.012,0.347-0.017,0.513-0.017
		c0.188,0,0.366,0.005,0.532,0.017c0.163,0.016,0.341,0.032,0.529,0.056c0.048,0.425,0.083,0.926,0.106,1.503
		s0.035,1.105,0.035,1.575c0.473-0.871,1.135-1.609,1.984-2.214c0.851-0.6,1.972-0.899,3.366-0.899c0.116,0,0.24,0,0.372,0
		c0.128,0,0.276,0.012,0.441,0.035c0.069,0.4,0.107,0.777,0.107,1.132c0,0.379-0.038,0.745-0.107,1.099
		c-0.19-0.023-0.337-0.034-0.441-0.034c-0.107,0-0.219,0-0.337,0c-1.605,0-2.894,0.507-3.862,1.522
		c-0.969,1.015-1.452,2.703-1.452,5.064v9.278c-0.142,0.023-0.337,0.041-0.585,0.055c-0.247,0.012-0.441,0.018-0.582,0.018
		c-0.119,0-0.308-0.006-0.568-0.018c-0.26-0.014-0.461-0.031-0.602-0.055V343.818z"/>
</g>
<g>
	<path style="fill:#FFFFFF;" d="M75.866,147.09H49.78c-0.278-1.378-0.486-2.899-0.623-4.556c-0.137-1.655-0.206-3.241-0.206-4.761
		c0-1.517,0.069-3.07,0.206-4.658c0.137-1.585,0.345-3.07,0.623-4.451h47.202v107.449c0,8.279-0.898,15.254-2.691,20.908
		c-1.795,5.662-4.419,10.183-7.866,13.564c-3.453,3.381-7.662,5.795-12.63,7.244C68.826,279.278,63.236,280,57.026,280
		c-3.313,0-6.627-0.242-9.939-0.723c-3.312-0.486-6.35-1.068-9.108-1.76c0-2.76,0.274-5.658,0.827-8.697
		c0.551-3.033,1.378-6.138,2.485-9.313c1.656,0.41,3.551,0.862,5.693,1.345c2.138,0.485,4.38,0.724,6.729,0.724
		c2.484,0,5.001-0.208,7.556-0.621c2.553-0.413,4.934-1.31,7.143-2.69c2.205-1.379,4.001-3.447,5.383-6.211
		c1.377-2.76,2.071-6.486,2.071-11.18V147.09z"/>
	<path style="fill:#FFFFFF;" d="M165.508,280c-8.281,0-15.527-1.414-21.737-4.242c-6.21-2.826-11.386-6.729-15.527-11.694
		c-4.142-4.971-7.214-10.838-9.213-17.601c-2.003-6.764-3.002-14.079-3.002-21.947c0-7.865,0.999-15.18,3.002-21.943
		c1.999-6.759,5.072-12.629,9.213-17.596c4.141-4.97,9.316-8.904,15.527-11.804c6.21-2.897,13.457-4.347,21.737-4.347
		c8.283,0,15.527,1.449,21.739,4.347c6.209,2.899,11.386,6.834,15.527,11.804c4.14,4.967,7.211,10.837,9.212,17.596
		c2,6.763,3.003,14.078,3.003,21.943c0,7.868-1.003,15.183-3.003,21.947c-2.001,6.763-5.072,12.63-9.212,17.601
		c-4.141,4.965-9.317,8.868-15.527,11.694C181.035,278.586,173.791,280,165.508,280z M165.508,263.646
		c9.524,0,16.563-3.447,21.117-10.352c4.557-6.898,6.832-16.491,6.832-28.777c0-12.282-2.275-21.842-6.832-28.672
		c-4.554-6.83-11.592-10.247-21.117-10.247c-9.522,0-16.529,3.417-21.013,10.247c-4.487,6.831-6.728,16.39-6.728,28.672
		c0,12.286,2.241,21.878,6.728,28.777C148.979,260.198,155.986,263.646,165.508,263.646z"/>
	<path style="fill:#FFFFFF;" d="M233.414,125.765c1.517-0.274,3.208-0.481,5.072-0.622c1.863-0.135,3.552-0.207,5.072-0.207
		c1.517,0,3.24,0.072,5.176,0.207c1.931,0.14,3.654,0.347,5.175,0.622v61.692c1.242-1.926,2.795-3.999,4.657-6.207
		c1.864-2.21,4.141-4.246,6.832-6.108c2.692-1.864,5.797-3.381,9.316-4.556c3.52-1.17,7.419-1.759,11.698-1.759
		c12.143,0,21.149,3.487,27.018,10.456c5.865,6.969,8.798,17.287,8.798,30.95v67.285c-1.52,0.271-3.209,0.482-5.073,0.623
		c-1.862,0.137-3.556,0.205-5.071,0.205c-1.521,0-3.21-0.068-5.074-0.205c-1.863-0.141-3.554-0.352-5.071-0.623v-61.695
		c0-9.798-1.625-17.01-4.866-21.633c-3.245-4.623-8.178-6.938-14.803-6.938c-3.727,0-7.317,0.657-10.766,1.968
		c-3.45,1.311-6.488,3.383-9.108,6.21c-2.623,2.83-4.694,6.523-6.212,11.075c-1.519,4.556-2.276,10.079-2.276,16.562v54.45
		c-1.521,0.271-3.245,0.482-5.175,0.623c-1.937,0.137-3.659,0.205-5.176,0.205c-1.381,0-3.038-0.068-4.968-0.205
		c-1.936-0.141-3.659-0.352-5.176-0.623V125.765z"/>
	<path style="fill:#FFFFFF;" d="M344.997,171.313c1.519-0.277,3.002-0.484,4.452-0.622c1.449-0.136,2.931-0.208,4.451-0.208
		c1.519,0,2.932,0.071,4.244,0.208c1.311,0.138,2.724,0.345,4.244,0.622c0.415,2.068,0.83,4.863,1.243,8.381
		c0.413,3.522,0.621,6.456,0.621,8.801c1.377-2.345,3.139-4.69,5.279-7.039c2.139-2.345,4.587-4.451,7.351-6.314
		c2.759-1.864,5.931-3.381,9.521-4.556c3.589-1.17,7.521-1.759,11.802-1.759c12.143,0,21.116,3.487,26.914,10.456
		c5.796,6.969,8.695,17.287,8.695,30.95v67.285c-1.52,0.271-3.245,0.482-5.176,0.623c-1.935,0.137-3.659,0.205-5.176,0.205
		c-1.519,0-3.209-0.068-5.072-0.205c-1.864-0.141-3.555-0.352-5.072-0.623v-61.695c0-9.798-1.521-17.01-4.556-21.633
		c-3.036-4.623-7.866-6.938-14.492-6.938c-3.866,0-7.523,0.691-10.973,2.072c-3.451,1.382-6.488,3.518-9.11,6.416
		c-2.623,2.897-4.729,6.662-6.313,11.281c-1.589,4.63-2.38,10.184-2.38,16.666v53.83c-1.521,0.271-3.209,0.482-5.073,0.623
		c-1.863,0.137-3.554,0.205-5.073,0.205c-1.52,0-3.244-0.068-5.176-0.205c-1.934-0.141-3.658-0.352-5.176-0.623V171.313z"/>
	<path style="fill:#FFFFFF;" d="M502.961,128.664c1.655-0.274,3.551-0.482,5.692-0.62c2.139-0.137,4.174-0.208,6.108-0.208
		c1.93,0,4.035,0.071,6.315,0.208c2.277,0.138,4.172,0.346,5.692,0.62l38.506,93.165l38.715-93.165
		c1.379-0.274,3.105-0.482,5.177-0.62c2.07-0.137,4.069-0.208,6.004-0.208c1.793,0,3.794,0.071,6.005,0.208
		c2.205,0.138,4.068,0.346,5.589,0.62l7.039,148.854c-1.657,0.271-3.347,0.482-5.071,0.623c-1.729,0.137-3.488,0.205-5.281,0.205
		c-1.795,0-3.554-0.068-5.277-0.205c-1.729-0.141-3.348-0.352-4.867-0.623l-4.761-115.729l-36.437,84.88
		c-2.765,0.417-5.591,0.622-8.488,0.622c-2.623,0-5.247-0.205-7.868-0.622l-35.194-85.502l-4.762,116.351
		c-1.521,0.271-3.105,0.482-4.762,0.623c-1.657,0.137-3.245,0.205-4.762,0.205c-1.795,0-3.521-0.068-5.176-0.205
		c-1.656-0.141-3.246-0.352-4.762-0.623L502.961,128.664z"/>
	<path style="fill:#FFFFFF;" d="M673.138,229.487c0.276,11.595,3.277,20.08,9.007,25.464c5.725,5.386,14.181,8.075,25.361,8.075
		c9.796,0,19.115-1.726,27.946-5.178c1.105,2.069,2.001,4.591,2.693,7.56c0.689,2.967,1.104,5.899,1.241,8.797
		c-4.554,1.936-9.559,3.379-15.01,4.348c-5.453,0.963-11.491,1.447-18.115,1.447c-9.662,0-17.943-1.344-24.842-4.035
		c-6.904-2.689-12.597-6.484-17.081-11.385c-4.486-4.897-7.765-10.696-9.834-17.392c-2.069-6.693-3.104-14.045-3.104-22.051
		c0-7.865,0.998-15.215,3.001-22.044c1.998-6.834,5.071-12.768,9.213-17.805c4.142-5.038,9.349-9.041,15.631-12.01
		c6.278-2.967,13.697-4.451,22.256-4.451c7.312,0,13.73,1.242,19.254,3.727c5.518,2.483,10.144,5.9,13.87,10.247
		c3.728,4.347,6.555,9.521,8.488,15.527c1.933,6.004,2.898,12.528,2.898,19.564c0,1.934-0.07,3.969-0.206,6.108
		c-0.139,2.14-0.279,3.966-0.413,5.486H673.138z M725.723,214.166c0-3.861-0.518-7.554-1.553-11.072
		c-1.034-3.521-2.555-6.591-4.555-9.216c-2.001-2.619-4.553-4.728-7.659-6.312c-3.106-1.587-6.8-2.382-11.076-2.382
		c-8.419,0-14.875,2.554-19.357,7.659c-4.487,5.108-7.212,12.214-8.18,21.323H725.723z"/>
	<path style="fill:#FFFFFF;" d="M820.75,207.541c0-8.141-2.071-13.799-6.213-16.976c-4.139-3.174-10.143-4.762-18.009-4.762
		c-4.835,0-9.354,0.381-13.562,1.14c-4.213,0.757-8.315,1.759-12.316,3.002c-2.624-4.556-3.936-10.008-3.936-16.356
		c4.69-1.517,9.867-2.691,15.528-3.52c5.656-0.827,11.107-1.242,16.356-1.242c13.797,0,24.288,3.14,31.467,9.417
		c7.176,6.285,10.766,16.323,10.766,30.125v66.457c-4.833,1.104-10.696,2.242-17.598,3.416c-6.902,1.172-13.942,1.758-21.116,1.758
		c-6.765,0-12.871-0.619-18.322-1.859c-5.453-1.246-10.077-3.242-13.871-6.004c-3.798-2.764-6.729-6.281-8.8-10.561
		c-2.068-4.276-3.104-9.451-3.104-15.526c0-5.932,1.206-11.145,3.623-15.629c2.413-4.485,5.693-8.212,9.834-11.181
		c4.14-2.965,8.901-5.176,14.285-6.624c5.383-1.449,11.041-2.178,16.977-2.178c4.416,0,8.039,0.105,10.87,0.311
		c2.826,0.208,5.208,0.452,7.142,0.728V207.541z M820.75,227.624c-2.071-0.276-4.694-0.549-7.869-0.829
		c-3.175-0.276-5.865-0.411-8.072-0.411c-8.559,0-15.082,1.584-19.564,4.759c-4.486,3.178-6.729,8.006-6.729,14.492
		c0,4.142,0.759,7.387,2.277,9.731c1.52,2.349,3.417,4.142,5.694,5.381c2.277,1.245,4.796,2.003,7.556,2.279
		c2.761,0.279,5.383,0.414,7.868,0.414c3.173,0,6.449-0.172,9.834-0.516c3.381-0.345,6.382-0.863,9.006-1.557V227.624z"/>
	<path style="fill:#FFFFFF;" d="M861.532,258.265c3.727,1.52,7.832,2.726,12.319,3.622c4.483,0.898,8.935,1.347,13.354,1.347
		c3.171,0,6.21-0.343,9.107-1.036c2.9-0.689,5.414-1.723,7.558-3.104c2.139-1.379,3.862-3.07,5.174-5.071
		c1.312-2.003,1.968-4.246,1.968-6.731c0-2.758-0.517-5.035-1.552-6.833c-1.034-1.789-2.416-3.312-4.139-4.551
		c-1.73-1.243-3.728-2.312-6.008-3.212c-2.277-0.893-4.729-1.759-7.349-2.588l-7.245-2.692c-8.833-3.309-15.254-7.036-19.255-11.177
		c-4.003-4.141-6.002-9.731-6.002-16.771c0-9.384,3.344-16.834,10.039-22.361c6.693-5.516,16.529-8.279,29.504-8.279
		c5.382,0,10.66,0.517,15.836,1.553c5.177,1.035,9.695,2.244,13.562,3.623c-0.277,2.763-0.797,5.522-1.553,8.279
		c-0.76,2.763-1.692,5.317-2.796,7.662c-3.038-1.105-6.66-2.173-10.868-3.208c-4.212-1.038-8.73-1.553-13.562-1.553
		c-5.104,0-9.626,0.9-13.559,2.692c-3.934,1.793-5.9,4.967-5.9,9.523c0,2.345,0.482,4.347,1.45,6.005
		c0.963,1.653,2.277,3.072,3.934,4.242c1.656,1.176,3.551,2.173,5.692,3.002c2.139,0.829,4.451,1.658,6.935,2.483l9.11,3.107
		c3.312,1.105,6.449,2.417,9.42,3.933c2.966,1.523,5.518,3.417,7.661,5.694c2.137,2.279,3.86,5.042,5.177,8.284
		c1.309,3.241,1.966,7.139,1.966,11.691c0,5.109-1.036,9.77-3.106,13.978c-2.069,4.212-5.005,7.798-8.801,10.767
		s-8.383,5.279-13.765,6.934c-5.384,1.654-11.318,2.482-17.807,2.482c-6.624,0-12.421-0.447-17.39-1.344
		c-4.968-0.898-9.596-2.104-13.872-3.621c0.274-2.762,0.861-5.555,1.762-8.383C859.428,263.821,860.428,261.027,861.532,258.265z"/>
</g>
</svg>
