<?xml version="1.0" encoding="iso-8859-1"?>
<!-- Generator: Adobe Illustrator 16.0.0, SVG Export Plug-In . SVG Version: 6.00 Build 0)  -->
<!DOCTYPE svg PUBLIC "-//W3C//DTD SVG 1.1//EN" "http://www.w3.org/Graphics/SVG/1.1/DTD/svg11.dtd">
<svg version="1.1" id="Layer_1" xmlns="http://www.w3.org/2000/svg" xmlns:xlink="http://www.w3.org/1999/xlink" x="0px" y="0px"
	 width="60px" height="70px" viewBox="0 0 60 70" style="enable-background:new 0 0 60 70;" xml:space="preserve">
<path style="fill:#F2F2F2;" d="M-22,53c0,2.209-1.791,4-4,4h-49c-2.209,0-4-1.791-4-4V43c0-2.209,1.791-4,4-4h49
	c2.209,0,4,1.791,4,4V53z"/>
<rect x="261" y="-87" style="fill:#494949;" width="191" height="66"/>
<path style="fill:#F2F2F2;" d="M409-31.549c0,1.408-1.141,2.549-2.548,2.549h-18.904c-1.407,0-2.548-1.141-2.548-2.549v-18.902
	c0-1.408,1.141-2.549,2.548-2.549h18.904c1.407,0,2.548,1.141,2.548,2.549V-31.549z"/>
<circle style="fill:#727272;" cx="396.9" cy="-40.914" r="9.715"/>
<path style="fill:#F2F2F2;" d="M435-31.549c0,1.408-1.141,2.549-2.548,2.549h-18.904c-1.407,0-2.548-1.141-2.548-2.549v-18.902
	c0-1.408,1.141-2.549,2.548-2.549h18.904c1.407,0,2.548,1.141,2.548,2.549V-31.549z"/>
<circle style="fill:#727272;" cx="423.338" cy="-40.914" r="9.715"/>
<path style="fill:#F2F2F2;" d="M-47-18.549C-47-17.141-48.141-16-49.548-16h-18.904C-69.859-16-71-17.141-71-18.549v-18.902
	C-71-38.859-69.859-40-68.452-40h18.904C-48.141-40-47-38.859-47-37.451V-18.549z"/>
<circle style="fill:#727272;" cx="-59.1" cy="-27.914" r="9.715"/>
<path style="fill:#F2F2F2;" d="M-21-18.549C-21-17.141-22.141-16-23.548-16h-18.904C-43.859-16-45-17.141-45-18.549v-18.902
	C-45-38.859-43.859-40-42.452-40h18.904C-22.141-40-21-38.859-21-37.451V-18.549z"/>
<circle style="fill:#727272;" cx="-32.662" cy="-27.914" r="9.715"/>
<path style="fill:#F2F2F2;" d="M109,46.993c0,1.66-1.346,3.007-3.006,3.007H84.006C82.346,50,81,48.653,81,46.993V25.007
	C81,23.346,82.346,22,84.006,22h21.988c1.66,0,3.006,1.346,3.006,3.007V46.993z"/>
<circle style="fill:#727272;" cx="94.544" cy="36.102" r="11.462"/>
<path style="fill:#F2F2F2;" d="M139,46.993c0,1.66-1.346,3.007-3.006,3.007h-21.988c-1.66,0-3.006-1.347-3.006-3.007V25.007
	c0-1.661,1.346-3.007,3.006-3.007h21.988c1.66,0,3.006,1.346,3.006,3.007V46.993z"/>
<circle style="fill:#727272;" cx="125.737" cy="36.102" r="11.462"/>
<path style="fill:#F2F2F2;" d="M378-36.141c0,2.287-1.854,4.141-4.141,4.141h-49.719c-2.287,0-4.141-1.854-4.141-4.141v-9.719
	c0-2.287,1.854-4.141,4.141-4.141h49.719c2.287,0,4.141,1.854,4.141,4.141V-36.141z"/>
<path style="fill:#353535;" d="M342-40.965c0,1.637-1.328,2.965-2.965,2.965h-10.07c-1.637,0-2.965-1.328-2.965-2.965v-0.07
	c0-1.637,1.328-2.965,2.965-2.965h10.07c1.637,0,2.965,1.328,2.965,2.965V-40.965z"/>
<path style="fill:#353535;" d="M370-40.965c0,1.637-1.328,2.965-2.965,2.965h-10.07c-1.637,0-2.965-1.328-2.965-2.965v-0.07
	c0-1.637,1.328-2.965,2.965-2.965h10.07c1.637,0,2.965,1.328,2.965,2.965V-40.965z"/>
<path style="fill:#808080;" d="M377-56.744c0,1.97-2.18,3.744-4.467,3.744h-49.051c-2.287,0-3.482-1.773-3.482-3.744v-2.742
	c0-1.97,1.195-3.514,3.482-3.514h49.051c2.287,0,4.467,1.544,4.467,3.514V-56.744z"/>
<path style="fill:#808080;" d="M377-21.705c0,1.969-2.18,3.705-4.467,3.705h-49.051c-2.287,0-3.482-1.736-3.482-3.705v-2.744
	c0-1.969,1.195-4.551,3.482-4.551h49.051c2.287,0,4.467,2.582,4.467,4.551V-21.705z"/>
<path style="fill:#808080;" d="M377-69.803c0,1.97-2.18,3.803-4.467,3.803h-49.051c-2.287,0-3.482-1.833-3.482-3.803v-2.742
	c0-1.97,1.195-3.455,3.482-3.455h49.051c2.287,0,4.467,1.485,4.467,3.455V-69.803z"/>
<path style="fill:#808080;" d="M377-82.543c0,1.969-2.18,3.543-4.467,3.543h-49.051c-2.287,0-3.482-1.574-3.482-3.543v-2.744
	c0-1.969,1.195-2.713,3.482-2.713h49.051c2.287,0,4.467,0.745,4.467,2.713V-82.543z"/>
<path style="fill:#DCDCDC;" d="M458-97.452c0-1.407-1.141-2.548-2.549-2.548H257.549c-1.408,0-2.549,1.141-2.549,2.548v79.903
	c0,1.408,1.141,2.549,2.549,2.549h197.902c1.408,0,2.549-1.141,2.549-2.549V-97.452z M452-21H261v-66h191V-21z"/>
<rect x="205" y="9" style="fill:#494949;" width="191" height="66"/>
<path style="fill:#808080;" d="M227-83.744c0,1.971-2.18,3.744-4.467,3.744h-49.051c-2.287,0-3.482-1.773-3.482-3.744v-2.742
	c0-1.97,1.195-3.514,3.482-3.514h49.051c2.287,0,4.467,1.544,4.467,3.514V-83.744z"/>
<path style="fill:#808080;" d="M227-48.705c0,1.969-2.18,3.705-4.467,3.705h-49.051c-2.287,0-3.482-1.736-3.482-3.705v-2.744
	c0-1.969,1.195-4.551,3.482-4.551h49.051c2.287,0,4.467,2.582,4.467,4.551V-48.705z"/>
<path style="fill:#808080;" d="M227-96.803c0,1.97-2.18,3.803-4.467,3.803h-49.051c-2.287,0-3.482-1.833-3.482-3.803v-2.742
	c0-1.97,1.195-3.455,3.482-3.455h49.051c2.287,0,4.467,1.485,4.467,3.455V-96.803z"/>
<path style="fill:#808080;" d="M227-109.543c0,1.969-2.18,3.543-4.467,3.543h-49.051c-2.287,0-3.482-1.574-3.482-3.543v-2.744
	c0-1.969,1.195-2.713,3.482-2.713h49.051c2.287,0,4.467,0.745,4.467,2.713V-109.543z"/>
<path style="fill:#353535;" d="M305-54h-10v-10c0-1.657-1.344-3-3-3h-6c-1.656,0-3,1.343-3,3v10h-10c-1.656,0-3,1.344-3,3v6
	c0,1.656,1.344,3,3,3h10v10c0,1.656,1.344,3,3,3h6c1.656,0,3-1.344,3-3v-10h10c1.656,0,3-1.344,3-3v-6C308-52.656,306.656-54,305-54
	z"/>
<path style="fill:#F2F2F2;" d="M292-28h-6c-2.205,0-4-1.795-4-4v-9h-9c-2.205,0-4-1.795-4-4v-6c0-2.205,1.795-4,4-4h9v-9
	c0-2.206,1.795-4,4-4h6c2.205,0,4,1.794,4,4v9h9c2.205,0,4,1.795,4,4v6c0,2.205-1.795,4-4,4h-9v9C296-29.795,294.205-28,292-28z
	 M273-53c-1.104,0-2,0.896-2,2v6c0,1.104,0.896,2,2,2h11v11c0,1.104,0.896,2,2,2h6c1.104,0,2-0.896,2-2v-11h11c1.104,0,2-0.896,2-2
	v-6c0-1.104-0.896-2-2-2h-11v-11c0-1.103-0.896-2-2-2h-6c-1.104,0-2,0.897-2,2v11H273z"/>
<path style="fill:#353535;" d="M250,40h-10V30c0-1.656-1.344-3-3-3h-6c-1.656,0-3,1.344-3,3v10h-10c-1.656,0-3,1.344-3,3v6
	c0,1.656,1.344,3,3,3h10v10c0,1.656,1.344,3,3,3h6c1.656,0,3-1.344,3-3V52h10c1.656,0,3-1.344,3-3v-6C253,41.344,251.656,40,250,40z
	"/>
<path style="fill:#F2F2F2;" d="M237,66h-6c-2.205,0-4-1.795-4-4v-9h-9c-2.205,0-4-1.795-4-4v-6c0-2.205,1.795-4,4-4h9v-9
	c0-2.205,1.795-4,4-4h6c2.205,0,4,1.795,4,4v9h9c2.205,0,4,1.795,4,4v6c0,2.205-1.795,4-4,4h-9v9C241,64.205,239.205,66,237,66z
	 M218,41c-1.104,0-2,0.896-2,2v6c0,1.104,0.896,2,2,2h11v11c0,1.104,0.896,2,2,2h6c1.104,0,2-0.896,2-2V51h11c1.104,0,2-0.896,2-2
	v-6c0-1.104-0.896-2-2-2h-11V30c0-1.104-0.896-2-2-2h-6c-1.104,0-2,0.896-2,2v11H218z"/>
<path style="fill:#353535;" d="M52.802,27H38V12.198C38,9.837,36.636,8,34.275,8h-8.551C23.364,8,22,9.837,22,12.198V27H7.198
	C4.838,27,3,28.364,3,30.725v8.55C3,41.636,4.838,43,7.198,43H22v14.802C22,60.162,23.364,62,25.725,62h8.551
	C36.636,62,38,60.162,38,57.802V43h14.802C55.162,43,57,41.636,57,39.275v-8.55C57,28.364,55.162,27,52.802,27z"/>
<path style="fill:#F2F2F2;" d="M34.275,63h-8.551C22.582,63,20,60.944,20,57.802V45H7.198C4.056,45,2,42.418,2,39.275v-8.55
	C2,27.583,4.056,25,7.198,25H20V12.198C20,9.055,22.582,7,25.725,7h8.551C37.418,7,40,9.055,40,12.198V25h12.802
	C55.944,25,58,27.583,58,30.725v8.55C58,42.418,55.944,45,52.802,45H40v12.802C40,60.944,37.418,63,34.275,63z M7.198,28
	C5.625,28,5,29.152,5,30.725v8.55C5,40.848,5.625,42,7.198,42H23v15.802C23,59.375,24.152,60,25.725,60h8.551
	C35.848,60,37,59.375,37,57.802V42h15.802C54.375,42,55,40.848,55,39.275v-8.55C55,29.152,54.375,28,52.802,28H37V12.198
	C37,10.626,35.848,10,34.275,10h-8.551C24.152,10,23,10.626,23,12.198V28H7.198z"/>
<path style="fill:#DCDCDC;" d="M227,123c0,2.209-1.791,4-4,4h-49c-2.209,0-4-1.791-4-4v-2c0-2.209,1.791-4,4-4h49
	c2.209,0,4,1.791,4,4V123z"/>
<path style="fill:#DCDCDC;" d="M227,110c0,2.209-1.791,4-4,4h-49c-2.209,0-4-1.791-4-4v-2c0-2.209,1.791-4,4-4h49
	c2.209,0,4,1.791,4,4V110z"/>
<path style="fill:#DCDCDC;" d="M227,97c0,2.209-1.791,4-4,4h-49c-2.209,0-4-1.791-4-4v-2c0-2.209,1.791-4,4-4h49
	c2.209,0,4,1.791,4,4V97z"/>
<path style="fill:#DCDCDC;" d="M227,157c0,2.209-1.791,4-4,4h-49c-2.209,0-4-1.791-4-4v-2c0-2.209,1.791-4,4-4h49
	c2.209,0,4,1.791,4,4V157z"/>
<rect x="170" y="-106" style="fill:#FFB83C;" width="57" height="3"/>
<rect x="170" y="-93" style="fill:#FFB83C;" width="57" height="3"/>
<rect x="170" y="-80" style="fill:#FFB83C;" width="57" height="3"/>
<rect x="170" y="-59" style="fill:#FFB83C;" width="57" height="3"/>
<path style="fill:#494949;" d="M192-68c0,1.657-1.344,3-3,3h-10c-1.656,0-3-1.343-3-3l0,0c0-1.657,1.344-3,3-3h10
	C190.656-71,192-69.657,192-68L192-68z"/>
<path style="fill:#494949;" d="M220-68c0,1.657-1.344,3-3,3h-10c-1.656,0-3-1.343-3-3l0,0c0-1.657,1.344-3,3-3h10
	C218.656-71,220-69.657,220-68L220-68z"/>
<path style="fill:#F2F2F2;" d="M227,144c0,2.209-1.791,4-4,4h-49c-2.209,0-4-1.791-4-4v-10c0-2.209,1.791-4,4-4h49
	c2.209,0,4,1.791,4,4V144z"/>
<path style="fill:#808080;" d="M-22,32c0,2.209-1.791,4-4,4h-49c-2.209,0-4-1.791-4-4v-2c0-2.209,1.791-4,4-4h49
	c2.209,0,4,1.791,4,4V32z"/>
<path style="fill:#808080;" d="M-22,19c0,2.209-1.791,4-4,4h-49c-2.209,0-4-1.791-4-4v-2c0-2.209,1.791-4,4-4h49
	c2.209,0,4,1.791,4,4V19z"/>
<path style="fill:#808080;" d="M-22,6c0,2.209-1.791,4-4,4h-49c-2.209,0-4-1.791-4-4V4c0-2.209,1.791-4,4-4h49c2.209,0,4,1.791,4,4
	V6z"/>
<path style="fill:#808080;" d="M-22,66c0,2.209-1.791,4-4,4h-49c-2.209,0-4-1.791-4-4v-2c0-2.209,1.791-4,4-4h49
	c2.209,0,4,1.791,4,4V66z"/>
<rect x="-7" y="117" style="fill:#FFB83C;" width="57" height="3"/>
<rect x="-7" y="130" style="fill:#FFB83C;" width="57" height="3"/>
<rect x="-7" y="143" style="fill:#FFB83C;" width="57" height="3"/>
<rect x="-7" y="164" style="fill:#FFB83C;" width="57" height="3"/>
<path style="fill:#494949;" d="M-57,48c0,1.657-1.344,3-3,3h-10c-1.656,0-3-1.343-3-3l0,0c0-1.657,1.344-3,3-3h10
	C-58.344,45-57,46.343-57,48L-57,48z"/>
<path style="fill:#494949;" d="M-28,48c0,1.657-1.344,3-3,3h-10c-1.656,0-3-1.343-3-3l0,0c0-1.657,1.344-3,3-3h10
	C-29.344,45-28,46.343-28,48L-28,48z"/>
<rect id="_x3C_Slice_x3E_" style="fill:none;" width="60" height="70"/>
<path style="fill:#F2F2F2;" d="M321,60c0,2.209-1.791,4-4,4h-49c-2.209,0-4-1.791-4-4V50c0-2.209,1.791-4,4-4h49
	c2.209,0,4,1.791,4,4V60z"/>
<path style="fill:#808080;" d="M321,39c0,2.209-1.791,4-4,4h-49c-2.209,0-4-1.791-4-4v-2c0-2.209,1.791-4,4-4h49
	c2.209,0,4,1.791,4,4V39z"/>
<path style="fill:#808080;" d="M321,26c0,2.209-1.791,4-4,4h-49c-2.209,0-4-1.791-4-4v-2c0-2.209,1.791-4,4-4h49
	c2.209,0,4,1.791,4,4V26z"/>
<path style="fill:#808080;" d="M321,13c0,2.209-1.791,4-4,4h-49c-2.209,0-4-1.791-4-4v-2c0-2.209,1.791-4,4-4h49
	c2.209,0,4,1.791,4,4V13z"/>
<path style="fill:#808080;" d="M321,73c0,2.209-1.791,4-4,4h-49c-2.209,0-4-1.791-4-4v-2c0-2.209,1.791-4,4-4h49
	c2.209,0,4,1.791,4,4V73z"/>
<path style="fill:#494949;" d="M286,55c0,1.657-1.344,3-3,3h-10c-1.656,0-3-1.343-3-3l0,0c0-1.657,1.344-3,3-3h10
	C284.656,52,286,53.343,286,55L286,55z"/>
<path style="fill:#494949;" d="M315,55c0,1.657-1.344,3-3,3h-10c-1.656,0-3-1.343-3-3l0,0c0-1.657,1.344-3,3-3h10
	C313.656,52,315,53.343,315,55L315,55z"/>
<rect id="_x3C_Slice_x3E__3_" x="263" y="7" style="fill:none;" width="60" height="70"/>
<rect id="_x3C_Slice_x3E__1_" style="fill:none;" width="60" height="70"/>
<rect id="_x3C_Slice_x3E__2_" x="80" style="fill:none;" width="60" height="70"/>
<path style="fill:#F2F2F2;" d="M354,64.451c0,1.408-1.141,2.549-2.548,2.549h-18.904c-1.407,0-2.548-1.141-2.548-2.549V45.549
	c0-1.408,1.141-2.549,2.548-2.549h18.904c1.407,0,2.548,1.141,2.548,2.549V64.451z"/>
<circle style="fill:#727272;" cx="341.9" cy="55.086" r="9.715"/>
<path style="fill:#F2F2F2;" d="M380,64.451c0,1.408-1.141,2.549-2.548,2.549h-18.904c-1.407,0-2.548-1.141-2.548-2.549V45.549
	c0-1.408,1.141-2.549,2.548-2.549h18.904c1.407,0,2.548,1.141,2.548,2.549V64.451z"/>
<circle style="fill:#727272;" cx="368.338" cy="55.086" r="9.715"/>
<path style="fill:#DCDCDC;" d="M402-1.452C402-2.859,400.859-4,399.451-4H201.549C200.141-4,199-2.859,199-1.452v79.903
	c0,1.408,1.141,2.549,2.549,2.549h197.902c1.408,0,2.549-1.141,2.549-2.549V-1.452z M396,75H205V9h191V75z"/>
</svg>
