<?xml version="1.0" encoding="iso-8859-1"?>
<!-- Generator: Adobe Illustrator 16.0.0, SVG Export Plug-In . SVG Version: 6.00 Build 0)  -->
<!DOCTYPE svg PUBLIC "-//W3C//DTD SVG 1.1//EN" "http://www.w3.org/Graphics/SVG/1.1/DTD/svg11.dtd">
<svg version="1.1" id="Layer_1" xmlns="http://www.w3.org/2000/svg" xmlns:xlink="http://www.w3.org/1999/xlink" x="0px" y="0px"
	 width="60px" height="70px" viewBox="0 0 60 70" style="enable-background:new 0 0 60 70;" xml:space="preserve">
<path style="fill:#F2F2F2;" d="M58,53c0,2.209-1.791,4-4,4H5c-2.209,0-4-1.791-4-4V43c0-2.209,1.791-4,4-4h49c2.209,0,4,1.791,4,4
	V53z"/>
<rect x="341" y="-87" style="fill:#494949;" width="191" height="66"/>
<path style="fill:#F2F2F2;" d="M489-31.549c0,1.408-1.141,2.549-2.548,2.549h-18.904c-1.407,0-2.548-1.141-2.548-2.549v-18.902
	c0-1.408,1.141-2.549,2.548-2.549h18.904c1.407,0,2.548,1.141,2.548,2.549V-31.549z"/>
<circle style="fill:#727272;" cx="476.9" cy="-40.914" r="9.715"/>
<path style="fill:#F2F2F2;" d="M515-31.549c0,1.408-1.141,2.549-2.548,2.549h-18.904c-1.407,0-2.548-1.141-2.548-2.549v-18.902
	c0-1.408,1.141-2.549,2.548-2.549h18.904c1.407,0,2.548,1.141,2.548,2.549V-31.549z"/>
<circle style="fill:#727272;" cx="503.338" cy="-40.914" r="9.715"/>
<path style="fill:#F2F2F2;" d="M33-18.549C33-17.141,31.859-16,30.452-16H11.548C10.141-16,9-17.141,9-18.549v-18.902
	C9-38.859,10.141-40,11.548-40h18.904C31.859-40,33-38.859,33-37.451V-18.549z"/>
<circle style="fill:#727272;" cx="20.9" cy="-27.914" r="9.715"/>
<path style="fill:#F2F2F2;" d="M59-18.549C59-17.141,57.859-16,56.452-16H37.548C36.141-16,35-17.141,35-18.549v-18.902
	C35-38.859,36.141-40,37.548-40h18.904C57.859-40,59-38.859,59-37.451V-18.549z"/>
<circle style="fill:#727272;" cx="47.338" cy="-27.914" r="9.715"/>
<path style="fill:#F2F2F2;" d="M189,46.993c0,1.66-1.346,3.007-3.006,3.007h-21.988c-1.66,0-3.006-1.347-3.006-3.007V25.007
	c0-1.661,1.346-3.007,3.006-3.007h21.988c1.66,0,3.006,1.346,3.006,3.007V46.993z"/>
<circle style="fill:#727272;" cx="174.544" cy="36.102" r="11.462"/>
<path style="fill:#F2F2F2;" d="M219,46.993c0,1.66-1.346,3.007-3.006,3.007h-21.988c-1.66,0-3.006-1.347-3.006-3.007V25.007
	c0-1.661,1.346-3.007,3.006-3.007h21.988c1.66,0,3.006,1.346,3.006,3.007V46.993z"/>
<circle style="fill:#727272;" cx="205.737" cy="36.102" r="11.462"/>
<path style="fill:#F2F2F2;" d="M458-36.141c0,2.287-1.854,4.141-4.141,4.141h-49.719c-2.287,0-4.141-1.854-4.141-4.141v-9.719
	c0-2.287,1.854-4.141,4.141-4.141h49.719c2.287,0,4.141,1.854,4.141,4.141V-36.141z"/>
<path style="fill:#353535;" d="M422-40.965c0,1.637-1.328,2.965-2.965,2.965h-10.07c-1.637,0-2.965-1.328-2.965-2.965v-0.07
	c0-1.637,1.328-2.965,2.965-2.965h10.07c1.637,0,2.965,1.328,2.965,2.965V-40.965z"/>
<path style="fill:#353535;" d="M450-40.965c0,1.637-1.328,2.965-2.965,2.965h-10.07c-1.637,0-2.965-1.328-2.965-2.965v-0.07
	c0-1.637,1.328-2.965,2.965-2.965h10.07c1.637,0,2.965,1.328,2.965,2.965V-40.965z"/>
<path style="fill:#808080;" d="M457-56.744c0,1.97-2.18,3.744-4.467,3.744h-49.051c-2.287,0-3.482-1.773-3.482-3.744v-2.742
	c0-1.97,1.195-3.514,3.482-3.514h49.051c2.287,0,4.467,1.544,4.467,3.514V-56.744z"/>
<path style="fill:#808080;" d="M457-21.705c0,1.969-2.18,3.705-4.467,3.705h-49.051c-2.287,0-3.482-1.736-3.482-3.705v-2.744
	c0-1.969,1.195-4.551,3.482-4.551h49.051c2.287,0,4.467,2.582,4.467,4.551V-21.705z"/>
<path style="fill:#808080;" d="M457-69.803c0,1.97-2.18,3.803-4.467,3.803h-49.051c-2.287,0-3.482-1.833-3.482-3.803v-2.742
	c0-1.97,1.195-3.455,3.482-3.455h49.051c2.287,0,4.467,1.485,4.467,3.455V-69.803z"/>
<path style="fill:#808080;" d="M457-82.543c0,1.969-2.18,3.543-4.467,3.543h-49.051c-2.287,0-3.482-1.574-3.482-3.543v-2.744
	c0-1.969,1.195-2.713,3.482-2.713h49.051c2.287,0,4.467,0.745,4.467,2.713V-82.543z"/>
<path style="fill:#DCDCDC;" d="M538-97.452c0-1.407-1.141-2.548-2.549-2.548H337.549c-1.408,0-2.549,1.141-2.549,2.548v79.903
	c0,1.408,1.141,2.549,2.549,2.549h197.902c1.408,0,2.549-1.141,2.549-2.549V-97.452z M532-21H341v-66h191V-21z"/>
<rect x="285" y="9" style="fill:#494949;" width="191" height="66"/>
<path style="fill:#808080;" d="M307-83.744c0,1.971-2.18,3.744-4.467,3.744h-49.051c-2.287,0-3.482-1.773-3.482-3.744v-2.742
	c0-1.97,1.195-3.514,3.482-3.514h49.051c2.287,0,4.467,1.544,4.467,3.514V-83.744z"/>
<path style="fill:#808080;" d="M307-48.705c0,1.969-2.18,3.705-4.467,3.705h-49.051c-2.287,0-3.482-1.736-3.482-3.705v-2.744
	c0-1.969,1.195-4.551,3.482-4.551h49.051c2.287,0,4.467,2.582,4.467,4.551V-48.705z"/>
<path style="fill:#808080;" d="M307-96.803c0,1.97-2.18,3.803-4.467,3.803h-49.051c-2.287,0-3.482-1.833-3.482-3.803v-2.742
	c0-1.97,1.195-3.455,3.482-3.455h49.051c2.287,0,4.467,1.485,4.467,3.455V-96.803z"/>
<path style="fill:#808080;" d="M307-109.543c0,1.969-2.18,3.543-4.467,3.543h-49.051c-2.287,0-3.482-1.574-3.482-3.543v-2.744
	c0-1.969,1.195-2.713,3.482-2.713h49.051c2.287,0,4.467,0.745,4.467,2.713V-109.543z"/>
<path style="fill:#353535;" d="M385-54h-10v-10c0-1.657-1.344-3-3-3h-6c-1.656,0-3,1.343-3,3v10h-10c-1.656,0-3,1.344-3,3v6
	c0,1.656,1.344,3,3,3h10v10c0,1.656,1.344,3,3,3h6c1.656,0,3-1.344,3-3v-10h10c1.656,0,3-1.344,3-3v-6C388-52.656,386.656-54,385-54
	z"/>
<path style="fill:#F2F2F2;" d="M372-28h-6c-2.205,0-4-1.795-4-4v-9h-9c-2.205,0-4-1.795-4-4v-6c0-2.205,1.795-4,4-4h9v-9
	c0-2.206,1.795-4,4-4h6c2.205,0,4,1.794,4,4v9h9c2.205,0,4,1.795,4,4v6c0,2.205-1.795,4-4,4h-9v9C376-29.795,374.205-28,372-28z
	 M353-53c-1.104,0-2,0.896-2,2v6c0,1.104,0.896,2,2,2h11v11c0,1.104,0.896,2,2,2h6c1.104,0,2-0.896,2-2v-11h11c1.104,0,2-0.896,2-2
	v-6c0-1.104-0.896-2-2-2h-11v-11c0-1.103-0.896-2-2-2h-6c-1.104,0-2,0.897-2,2v11H353z"/>
<path style="fill:#353535;" d="M330,40h-10V30c0-1.656-1.344-3-3-3h-6c-1.656,0-3,1.344-3,3v10h-10c-1.656,0-3,1.344-3,3v6
	c0,1.656,1.344,3,3,3h10v10c0,1.656,1.344,3,3,3h6c1.656,0,3-1.344,3-3V52h10c1.656,0,3-1.344,3-3v-6C333,41.344,331.656,40,330,40z
	"/>
<path style="fill:#F2F2F2;" d="M317,66h-6c-2.205,0-4-1.795-4-4v-9h-9c-2.205,0-4-1.795-4-4v-6c0-2.205,1.795-4,4-4h9v-9
	c0-2.205,1.795-4,4-4h6c2.205,0,4,1.795,4,4v9h9c2.205,0,4,1.795,4,4v6c0,2.205-1.795,4-4,4h-9v9C321,64.205,319.205,66,317,66z
	 M298,41c-1.104,0-2,0.896-2,2v6c0,1.104,0.896,2,2,2h11v11c0,1.104,0.896,2,2,2h6c1.104,0,2-0.896,2-2V51h11c1.104,0,2-0.896,2-2
	v-6c0-1.104-0.896-2-2-2h-11V30c0-1.104-0.896-2-2-2h-6c-1.104,0-2,0.896-2,2v11H298z"/>
<path style="fill:#353535;" d="M132.802,27H118V12.198C118,9.837,116.636,8,114.275,8h-8.551C103.364,8,102,9.837,102,12.198V27
	H87.198C84.838,27,83,28.364,83,30.725v8.55C83,41.636,84.838,43,87.198,43H102v14.802c0,2.36,1.364,4.198,3.725,4.198h8.551
	c2.36,0,3.725-1.838,3.725-4.198V43h14.802c2.36,0,4.198-1.364,4.198-3.725v-8.55C137,28.364,135.162,27,132.802,27z"/>
<path style="fill:#F2F2F2;" d="M114.275,63h-8.551c-3.143,0-5.725-2.056-5.725-5.198V45H87.198C84.056,45,82,42.418,82,39.275v-8.55
	C82,27.583,84.056,25,87.198,25H100V12.198C100,9.055,102.582,7,105.725,7h8.551C117.418,7,120,9.055,120,12.198V25h12.802
	c3.143,0,5.198,2.583,5.198,5.725v8.55c0,3.143-2.056,5.725-5.198,5.725H120v12.802C120,60.944,117.418,63,114.275,63z M87.198,28
	C85.625,28,85,29.152,85,30.725v8.55C85,40.848,85.625,42,87.198,42H103v15.802c0,1.573,1.152,2.198,2.725,2.198h8.551
	c1.572,0,2.725-0.625,2.725-2.198V42h15.802c1.573,0,2.198-1.152,2.198-2.725v-8.55c0-1.573-0.625-2.725-2.198-2.725H117V12.198
	c0-1.572-1.152-2.198-2.725-2.198h-8.551c-1.572,0-2.725,0.626-2.725,2.198V28H87.198z"/>
<path style="fill:#DCDCDC;" d="M307,123c0,2.209-1.791,4-4,4h-49c-2.209,0-4-1.791-4-4v-2c0-2.209,1.791-4,4-4h49
	c2.209,0,4,1.791,4,4V123z"/>
<path style="fill:#DCDCDC;" d="M307,110c0,2.209-1.791,4-4,4h-49c-2.209,0-4-1.791-4-4v-2c0-2.209,1.791-4,4-4h49
	c2.209,0,4,1.791,4,4V110z"/>
<path style="fill:#DCDCDC;" d="M307,97c0,2.209-1.791,4-4,4h-49c-2.209,0-4-1.791-4-4v-2c0-2.209,1.791-4,4-4h49
	c2.209,0,4,1.791,4,4V97z"/>
<path style="fill:#DCDCDC;" d="M307,157c0,2.209-1.791,4-4,4h-49c-2.209,0-4-1.791-4-4v-2c0-2.209,1.791-4,4-4h49
	c2.209,0,4,1.791,4,4V157z"/>
<rect x="250" y="-106" style="fill:#FFB83C;" width="57" height="3"/>
<rect x="250" y="-93" style="fill:#FFB83C;" width="57" height="3"/>
<rect x="250" y="-80" style="fill:#FFB83C;" width="57" height="3"/>
<rect x="250" y="-59" style="fill:#FFB83C;" width="57" height="3"/>
<path style="fill:#494949;" d="M272-68c0,1.657-1.344,3-3,3h-10c-1.656,0-3-1.343-3-3l0,0c0-1.657,1.344-3,3-3h10
	C270.656-71,272-69.657,272-68L272-68z"/>
<path style="fill:#494949;" d="M300-68c0,1.657-1.344,3-3,3h-10c-1.656,0-3-1.343-3-3l0,0c0-1.657,1.344-3,3-3h10
	C298.656-71,300-69.657,300-68L300-68z"/>
<path style="fill:#F2F2F2;" d="M307,144c0,2.209-1.791,4-4,4h-49c-2.209,0-4-1.791-4-4v-10c0-2.209,1.791-4,4-4h49
	c2.209,0,4,1.791,4,4V144z"/>
<path style="fill:#808080;" d="M58,32c0,2.209-1.791,4-4,4H5c-2.209,0-4-1.791-4-4v-2c0-2.209,1.791-4,4-4h49c2.209,0,4,1.791,4,4
	V32z"/>
<path style="fill:#808080;" d="M58,19c0,2.209-1.791,4-4,4H5c-2.209,0-4-1.791-4-4v-2c0-2.209,1.791-4,4-4h49c2.209,0,4,1.791,4,4
	V19z"/>
<path style="fill:#808080;" d="M58,6c0,2.209-1.791,4-4,4H5c-2.209,0-4-1.791-4-4V4c0-2.209,1.791-4,4-4h49c2.209,0,4,1.791,4,4V6z"
	/>
<path style="fill:#808080;" d="M58,66c0,2.209-1.791,4-4,4H5c-2.209,0-4-1.791-4-4v-2c0-2.209,1.791-4,4-4h49c2.209,0,4,1.791,4,4
	V66z"/>
<rect x="73" y="117" style="fill:#FFB83C;" width="57" height="3"/>
<rect x="73" y="130" style="fill:#FFB83C;" width="57" height="3"/>
<rect x="73" y="143" style="fill:#FFB83C;" width="57" height="3"/>
<rect x="73" y="164" style="fill:#FFB83C;" width="57" height="3"/>
<path style="fill:#494949;" d="M23,48c0,1.657-1.344,3-3,3H10c-1.656,0-3-1.343-3-3l0,0c0-1.657,1.344-3,3-3h10
	C21.656,45,23,46.343,23,48L23,48z"/>
<path style="fill:#494949;" d="M52,48c0,1.657-1.344,3-3,3H39c-1.656,0-3-1.343-3-3l0,0c0-1.657,1.344-3,3-3h10
	C50.656,45,52,46.343,52,48L52,48z"/>
<rect id="_x3C_Slice_x3E_" style="fill:none;" width="60" height="70"/>
<path style="fill:#F2F2F2;" d="M401,60c0,2.209-1.791,4-4,4h-49c-2.209,0-4-1.791-4-4V50c0-2.209,1.791-4,4-4h49
	c2.209,0,4,1.791,4,4V60z"/>
<path style="fill:#808080;" d="M401,39c0,2.209-1.791,4-4,4h-49c-2.209,0-4-1.791-4-4v-2c0-2.209,1.791-4,4-4h49
	c2.209,0,4,1.791,4,4V39z"/>
<path style="fill:#808080;" d="M401,26c0,2.209-1.791,4-4,4h-49c-2.209,0-4-1.791-4-4v-2c0-2.209,1.791-4,4-4h49
	c2.209,0,4,1.791,4,4V26z"/>
<path style="fill:#808080;" d="M401,13c0,2.209-1.791,4-4,4h-49c-2.209,0-4-1.791-4-4v-2c0-2.209,1.791-4,4-4h49
	c2.209,0,4,1.791,4,4V13z"/>
<path style="fill:#808080;" d="M401,73c0,2.209-1.791,4-4,4h-49c-2.209,0-4-1.791-4-4v-2c0-2.209,1.791-4,4-4h49
	c2.209,0,4,1.791,4,4V73z"/>
<path style="fill:#494949;" d="M366,55c0,1.657-1.344,3-3,3h-10c-1.656,0-3-1.343-3-3l0,0c0-1.657,1.344-3,3-3h10
	C364.656,52,366,53.343,366,55L366,55z"/>
<path style="fill:#494949;" d="M395,55c0,1.657-1.344,3-3,3h-10c-1.656,0-3-1.343-3-3l0,0c0-1.657,1.344-3,3-3h10
	C393.656,52,395,53.343,395,55L395,55z"/>
<rect id="_x3C_Slice_x3E__3_" x="343" y="7" style="fill:none;" width="60" height="70"/>
<rect id="_x3C_Slice_x3E__1_" x="80" style="fill:none;" width="60" height="70"/>
<rect id="_x3C_Slice_x3E__2_" x="160" style="fill:none;" width="60" height="70"/>
<path style="fill:#F2F2F2;" d="M434,64.451c0,1.408-1.141,2.549-2.548,2.549h-18.904c-1.407,0-2.548-1.141-2.548-2.549V45.549
	c0-1.408,1.141-2.549,2.548-2.549h18.904c1.407,0,2.548,1.141,2.548,2.549V64.451z"/>
<circle style="fill:#727272;" cx="421.9" cy="55.086" r="9.715"/>
<path style="fill:#F2F2F2;" d="M460,64.451c0,1.408-1.141,2.549-2.548,2.549h-18.904c-1.407,0-2.548-1.141-2.548-2.549V45.549
	c0-1.408,1.141-2.549,2.548-2.549h18.904c1.407,0,2.548,1.141,2.548,2.549V64.451z"/>
<circle style="fill:#727272;" cx="448.338" cy="55.086" r="9.715"/>
<path style="fill:#DCDCDC;" d="M482-1.452C482-2.859,480.859-4,479.451-4H281.549C280.141-4,279-2.859,279-1.452v79.903
	c0,1.408,1.141,2.549,2.549,2.549h197.902c1.408,0,2.549-1.141,2.549-2.549V-1.452z M476,75H285V9h191V75z"/>
</svg>
