<?xml version="1.0" encoding="iso-8859-1"?>
<!-- Generator: Adobe Illustrator 16.0.0, SVG Export Plug-In . SVG Version: 6.00 Build 0)  -->
<!DOCTYPE svg PUBLIC "-//W3C//DTD SVG 1.1//EN" "http://www.w3.org/Graphics/SVG/1.1/DTD/svg11.dtd">
<svg version="1.1" id="Layer_1" xmlns="http://www.w3.org/2000/svg" xmlns:xlink="http://www.w3.org/1999/xlink" x="0px" y="0px"
	 width="600px" height="300px" viewBox="0 0 600 300" style="enable-background:new 0 0 600 300;" xml:space="preserve">
<rect x="59" y="76" style="fill:#494949;" width="479" height="165"/>
<path style="fill:#353535;" d="M171.849,153H147v-24.817c0-4.153-3.6-7.183-7.754-7.183h-15.048c-4.153,0-7.198,3.029-7.198,7.183
	V153H91.595c-4.154,0-7.595,3.632-7.595,7.786v15.047c0,4.153,3.441,7.167,7.595,7.167H117v25.438c0,4.152,3.045,7.562,7.198,7.562
	h15.048c4.154,0,7.754-3.41,7.754-7.562V183h24.849c4.154,0,7.151-3.014,7.151-7.167v-15.047C179,156.632,176.003,153,171.849,153z"
	/>
<path style="fill:#F2F2F2;" d="M139.246,218h-15.048c-5.53,0-10.198-4.033-10.198-9.562V186H91.595
	c-5.53,0-9.595-4.637-9.595-10.167v-15.047c0-5.53,4.065-9.786,9.595-9.786H114v-22.817c0-5.53,4.668-10.183,10.198-10.183h15.048
	c5.53,0,9.754,4.652,9.754,10.183V151h22.849c5.53,0,10.151,4.256,10.151,9.786v15.047c0,5.53-4.621,10.167-10.151,10.167H149
	v22.438C149,213.967,144.776,218,139.246,218z M91.595,156c-2.768,0-4.595,2.02-4.595,4.786v15.047c0,2.769,1.828,5.167,4.595,5.167
	H119v27.438c0,2.768,2.431,4.562,5.198,4.562h15.048c2.768,0,4.754-1.796,4.754-4.562V181h27.849c2.768,0,5.151-2.398,5.151-5.167
	v-15.047c0-2.769-2.383-4.786-5.151-4.786H144v-27.817c0-2.768-1.986-5.183-4.754-5.183h-15.048c-2.768,0-5.198,2.415-5.198,5.183
	V156H91.595z"/>
<path style="fill:#F2F2F2;" d="M350,202.969c0,5.54-4.491,10.031-10.032,10.031H217.032c-5.541,0-10.032-4.491-10.032-10.031
	v-24.938c0-5.54,4.492-10.031,10.032-10.031h122.936c5.541,0,10.032,4.491,10.032,10.031V202.969z"/>
<path style="fill:#808080;" d="M350,150.968c0,5.541-4.491,10.032-10.032,10.032H217.032c-5.541,0-10.032-4.491-10.032-10.032
	v-4.936c0-5.541,4.492-10.032,10.032-10.032h122.936c5.541,0,10.032,4.491,10.032,10.032V150.968z"/>
<path style="fill:#808080;" d="M350,117.969c0,5.54-4.491,10.031-10.032,10.031H217.032c-5.541,0-10.032-4.491-10.032-10.031v-4.938
	c0-5.54,4.492-10.031,10.032-10.031h122.936c5.541,0,10.032,4.491,10.032,10.031V117.969z"/>
<path style="fill:#808080;" d="M350,85.968C350,91.509,345.509,96,339.968,96H217.032C211.492,96,207,91.509,207,85.968v-4.937
	C207,75.491,211.492,71,217.032,71h122.936C345.509,71,350,75.491,350,81.032V85.968z"/>
<path style="fill:#808080;" d="M350,235.968c0,5.541-4.491,10.032-10.032,10.032H217.032c-5.541,0-10.032-4.491-10.032-10.032
	v-4.936c0-5.541,4.492-10.032,10.032-10.032h122.936c5.541,0,10.032,4.491,10.032,10.032V235.968z"/>
<path style="fill:#494949;" d="M262.135,190.5c0,4.156-3.37,7.5-7.523,7.5h-25.08c-4.154,0-7.524-3.344-7.524-7.5l0,0
	c0-4.156,3.37-7.5,7.524-7.5h25.08C258.765,183,262.135,186.344,262.135,190.5L262.135,190.5z"/>
<path style="fill:#494949;" d="M334.865,190.5c0,4.156-3.37,7.5-7.524,7.5h-25.079c-4.153,0-7.523-3.344-7.523-7.5l0,0
	c0-4.156,3.37-7.5,7.523-7.5h25.079C331.495,183,334.865,186.344,334.865,190.5L334.865,190.5z"/>
<rect id="_x3C_Slice_x3E__3_" x="204" y="71" style="fill:none;" width="151" height="175"/>
<path style="fill:#F2F2F2;" d="M433,214.584c0,3.531-3.186,6.416-6.715,6.416h-47.411c-3.528,0-6.874-2.885-6.874-6.416v-47.406
	c0-3.531,3.346-6.178,6.874-6.178h47.411c3.529,0,6.715,2.646,6.715,6.178V214.584z"/>
<circle style="fill:#A84A4A;" cx="402.329" cy="191.097" r="24.364"/>
<path style="fill:#F2F2F2;" d="M498,214.584c0,3.531-2.979,6.416-6.509,6.416H444.08c-3.529,0-6.08-2.885-6.08-6.416v-47.406
	c0-3.531,2.551-6.178,6.08-6.178h47.411c3.528,0,6.509,2.646,6.509,6.178V214.584z"/>
<circle style="fill:#A84A4A;" cx="468.633" cy="191.097" r="24.364"/>
<path style="fill:#DCDCDC;" d="M553,49.304c0-3.529-2.805-6.304-6.337-6.304H50.337C46.805,43,44,45.774,44,49.304v200.391
	c0,3.531,2.805,6.306,6.337,6.306h496.326c3.532,0,6.337-2.772,6.337-6.306V49.304L553,49.304z M538,241H59V76h479V241z"/>
<rect id="_x3C_Slice_x3E_" x="44" y="43" style="fill:none;" width="509" height="213"/>
<g>
	<path style="fill:#A84A4A;" d="M373.19,130.572c0.459,0.037,0.994,0.037,1.457,0.037c1.338,0,2.408-0.497,2.408-2.564v-20.446
		h4.212v20.139c0,5.36-2.87,6.738-6.048,6.738c-0.766,0-1.34,0-2.029-0.076V130.572z"/>
	<path style="fill:#A84A4A;" d="M383.804,114.032c0-4.288,2.257-6.739,6.394-6.739c4.134,0,6.394,2.451,6.394,6.739v13.936
		c0,4.29-2.26,6.74-6.394,6.74c-4.137,0-6.394-2.45-6.394-6.74V114.032z M388.015,128.235c0,1.916,0.842,2.642,2.183,2.642
		c1.34,0,2.182-0.726,2.182-2.642v-14.472c0-1.914-0.842-2.642-2.182-2.642c-1.341,0-2.183,0.728-2.183,2.642V128.235z"/>
	<path style="fill:#A84A4A;" d="M403.526,134.4h-4.211v-26.801h4.211v11.486h4.786v-11.486h4.29V134.4h-4.29v-11.486h-4.786V134.4z"
		/>
	<path style="fill:#A84A4A;" d="M419.501,114.989h-0.074V134.4h-3.791v-26.801h5.284l4.249,16.042h0.079v-16.042h3.749V134.4h-4.327
		L419.501,114.989z"/>
	<path style="fill:#A84A4A;" d="M446.854,126.628h0.075l2.833-19.029h5.858V134.4h-3.981v-19.219h-0.078l-2.834,19.219h-3.98
		l-3.062-18.952h-0.076V134.4h-3.677v-26.801h5.858L446.854,126.628z"/>
	<path style="fill:#A84A4A;" d="M462.907,118.894h5.782v3.829h-5.782v7.85h7.275v3.828h-11.487v-26.801h11.487v3.83h-7.275V118.894z
		"/>
	<path style="fill:#A84A4A;" d="M486.422,134.4h-4.249l-0.728-4.861h-5.167l-0.73,4.861h-3.866l4.291-26.801h6.163L486.422,134.4z
		 M476.813,125.9h4.06l-1.993-13.554h-0.076L476.813,125.9z"/>
	<path style="fill:#A84A4A;" d="M494.049,107.293c4.099,0,6.203,2.451,6.203,6.739v0.842h-3.981v-1.11
		c0-1.914-0.765-2.642-2.105-2.642s-2.107,0.728-2.107,2.642c0,1.952,0.843,3.407,3.602,5.819c3.522,3.102,4.633,5.323,4.633,8.385
		c0,4.29-2.145,6.74-6.279,6.74c-4.137,0-6.282-2.45-6.282-6.74v-1.646h3.985v1.915c0,1.916,0.842,2.604,2.183,2.604
		c1.34,0,2.182-0.688,2.182-2.604c0-1.952-0.842-3.408-3.602-5.819c-3.521-3.102-4.632-5.322-4.632-8.384
		C487.847,109.744,489.955,107.293,494.049,107.293z"/>
</g>
</svg>
