<?xml version="1.0" encoding="iso-8859-1"?>
<!-- Generator: Adobe Illustrator 16.0.0, SVG Export Plug-In . SVG Version: 6.00 Build 0)  -->
<!DOCTYPE svg PUBLIC "-//W3C//DTD SVG 1.1//EN" "http://www.w3.org/Graphics/SVG/1.1/DTD/svg11.dtd">
<svg version="1.1" id="Layer_1" xmlns="http://www.w3.org/2000/svg" xmlns:xlink="http://www.w3.org/1999/xlink" x="0px" y="0px"
	 width="600px" height="300px" viewBox="0 0 600 300" style="enable-background:new 0 0 600 300;" xml:space="preserve">
<rect x="59" y="76" style="fill:#494949;" width="479" height="165"/>
<path style="fill:#353535;" d="M171.849,153H147v-24.817c0-4.153-3.6-7.183-7.754-7.183h-15.048c-4.153,0-7.198,3.029-7.198,7.183
	V153H91.595c-4.154,0-7.595,3.632-7.595,7.786v15.047c0,4.154,3.441,7.167,7.595,7.167H117v25.437c0,4.153,3.045,7.563,7.198,7.563
	h15.048c4.154,0,7.754-3.41,7.754-7.563V183h24.849c4.154,0,7.151-3.013,7.151-7.167v-15.047C179,156.632,176.003,153,171.849,153z"
	/>
<path style="fill:#F2F2F2;" d="M139.246,218h-15.048c-5.53,0-10.198-4.033-10.198-9.563V186H91.595
	c-5.53,0-9.595-4.637-9.595-10.167v-15.047c0-5.53,4.065-9.786,9.595-9.786H114v-22.817c0-5.53,4.668-10.183,10.198-10.183h15.048
	c5.53,0,9.754,4.652,9.754,10.183V151h22.849c5.53,0,10.151,4.256,10.151,9.786v15.047c0,5.53-4.621,10.167-10.151,10.167H149
	v22.437C149,213.967,144.776,218,139.246,218z M91.595,156c-2.768,0-4.595,2.019-4.595,4.786v15.047
	c0,2.768,1.828,5.167,4.595,5.167H119v27.437c0,2.768,2.431,4.563,5.198,4.563h15.048c2.768,0,4.754-1.796,4.754-4.563V181h27.849
	c2.768,0,5.151-2.399,5.151-5.167v-15.047c0-2.768-2.383-4.786-5.151-4.786H144v-27.817c0-2.768-1.986-5.183-4.754-5.183h-15.048
	c-2.768,0-5.198,2.415-5.198,5.183V156H91.595z"/>
<path style="fill:#F2F2F2;" d="M350,202.969c0,5.54-4.491,10.031-10.032,10.031H217.032c-5.541,0-10.032-4.491-10.032-10.031
	v-24.938c0-5.54,4.492-10.031,10.032-10.031h122.936c5.541,0,10.032,4.491,10.032,10.031V202.969z"/>
<path style="fill:#808080;" d="M350,150.968c0,5.541-4.491,10.032-10.032,10.032H217.032c-5.541,0-10.032-4.491-10.032-10.032
	v-4.936c0-5.541,4.492-10.032,10.032-10.032h122.936c5.541,0,10.032,4.491,10.032,10.032V150.968z"/>
<path style="fill:#808080;" d="M350,117.969c0,5.54-4.491,10.031-10.032,10.031H217.032c-5.541,0-10.032-4.491-10.032-10.031v-4.938
	c0-5.54,4.492-10.031,10.032-10.031h122.936c5.541,0,10.032,4.491,10.032,10.031V117.969z"/>
<path style="fill:#808080;" d="M350,85.968C350,91.509,345.509,96,339.968,96H217.032C211.492,96,207,91.509,207,85.968v-4.937
	C207,75.491,211.492,71,217.032,71h122.936C345.509,71,350,75.491,350,81.032V85.968z"/>
<path style="fill:#808080;" d="M350,235.968c0,5.541-4.491,10.032-10.032,10.032H217.032c-5.541,0-10.032-4.491-10.032-10.032
	v-4.936c0-5.541,4.492-10.032,10.032-10.032h122.936c5.541,0,10.032,4.491,10.032,10.032V235.968z"/>
<path style="fill:#494949;" d="M262.135,190.5c0,4.156-3.37,7.5-7.523,7.5h-25.08c-4.154,0-7.524-3.344-7.524-7.5l0,0
	c0-4.156,3.37-7.5,7.524-7.5h25.08C258.765,183,262.135,186.344,262.135,190.5L262.135,190.5z"/>
<path style="fill:#494949;" d="M334.865,190.5c0,4.156-3.37,7.5-7.524,7.5h-25.079c-4.153,0-7.523-3.344-7.523-7.5l0,0
	c0-4.156,3.37-7.5,7.523-7.5h25.079C331.495,183,334.865,186.344,334.865,190.5L334.865,190.5z"/>
<rect id="_x3C_Slice_x3E__3_" x="204" y="71" style="fill:none;" width="151" height="175"/>
<path style="fill:#F2F2F2;" d="M433,214.584c0,3.531-3.186,6.416-6.715,6.416h-47.411c-3.529,0-6.874-2.885-6.874-6.416v-47.406
	c0-3.531,3.345-6.178,6.874-6.178h47.411c3.529,0,6.715,2.646,6.715,6.178V214.584z"/>
<circle style="fill:#A84A4A;" cx="402.329" cy="191.097" r="24.364"/>
<path style="fill:#F2F2F2;" d="M498,214.584c0,3.531-2.979,6.416-6.509,6.416H444.08c-3.529,0-6.08-2.885-6.08-6.416v-47.406
	c0-3.531,2.551-6.178,6.08-6.178h47.411c3.529,0,6.509,2.646,6.509,6.178V214.584z"/>
<circle style="fill:#A84A4A;" cx="468.633" cy="191.097" r="24.364"/>
<path style="fill:#DCDCDC;" d="M553,49.304c0-3.529-2.805-6.304-6.337-6.304H50.337C46.805,43,44,45.774,44,49.304v200.392
	c0,3.531,2.805,6.305,6.337,6.305h496.326c3.532,0,6.337-2.773,6.337-6.305V49.304z M538,241H59V76h479V241z"/>
<g id="cItBsl_1_">
	<g>
		<path style="fill-rule:evenodd;clip-rule:evenodd;fill:#A84A4A;" d="M385.812,103.067c1.062,0.487,2.2,0.863,3.16,1.502
			c0.779,0.518,1.373,1.334,1.999,2.062c0.238,0.279,0.332,0.683,0.499,1.05c0.409-0.033,0.775-0.062,1.028-0.083
			c0,1.946,0.062,3.835-0.016,5.717c-0.137,3.297-0.373,6.588-0.546,9.883c-0.235,4.524-0.456,9.048-0.668,13.57
			c-0.03,0.664,0.021,1.329,0.036,1.993c-0.071,0-0.142,0-0.214,0c-0.149-0.078-0.293-0.202-0.453-0.232
			c-3.369-0.641-6.739-1.285-10.112-1.905c-3.094-0.57-6.19-1.111-9.288-1.664c0-0.071,0-0.141,0-0.212
			c0.077-0.192,0.198-0.378,0.225-0.58c0.791-6.014,1.544-12.034,2.365-18.045c0.444-3.251-0.301-2.76,3.042-3.717
			c1.138-0.327,1.709-0.881,2.035-2.038c0.954-3.373,2.628-6.207,6.273-7.303C385.389,103.067,385.6,103.067,385.812,103.067z
			 M376.907,128.254c-1.504,2.863-1.018,4.039,2.034,4.945c2.965,0.882,5.733-0.031,6.85-2.369c1.362-2.856,0.815-5.716-1.921-7.622
			c-0.433-0.302-0.854-0.62-1.276-0.939c-0.648-0.489-1.11-1.203-0.666-1.898c0.312-0.491,1.082-0.906,1.68-0.946
			c0.949-0.061,1.921,0.218,2.99,0.367c0.319-0.983,0.594-2.035,1.008-3.029c0.345-0.826-0.043-1.081-0.716-1.247
			c-2.151-0.527-4.18-0.175-6.115,0.859c-3.007,1.61-4.771,6.801-0.943,9.652c0.364,0.273,0.704,0.585,1.025,0.909
			c0.612,0.618,0.994,1.351,0.469,2.169c-0.497,0.768-1.293,0.63-1.996,0.339C378.498,129.101,377.712,128.656,376.907,128.254z
			 M386.329,104.557c-2.553-1.31-6.103,2.872-6.479,6.721c2.046-0.144,2.651-0.583,3.21-2.337c0.064-0.201,0.145-0.396,0.213-0.593
			C383.817,106.744,384.745,105.426,386.329,104.557z M387.188,105.517c-1.787,0.69-3.234,2.9-3.073,4.524
			c0.977-0.292,1.95-0.553,2.896-0.891c0.229-0.081,0.526-0.43,0.514-0.638C387.468,107.527,387.316,106.548,387.188,105.517z
			 M388.64,108.628c0.641-0.202,1.205-0.379,1.862-0.586c-0.492-1.183-0.729-2.375-2.248-2.742
			C388.383,106.409,388.495,107.395,388.64,108.628z"/>
		<path style="fill-rule:evenodd;clip-rule:evenodd;fill:#A84A4A;" d="M393.508,107.985c1.199,1.635,2.893,1.858,4.677,1.937
			c0.177,0.007,0.434,0.485,0.479,0.773c0.507,3.187,0.98,6.375,1.453,9.567c0.739,4.994,1.444,9.994,2.233,14.981
			c0.133,0.839-0.055,1.099-0.848,1.263c-3.116,0.636-6.22,1.334-9.5,2.047C392.508,128.275,393.006,118.13,393.508,107.985z"/>
		<path style="fill-rule:evenodd;clip-rule:evenodd;fill:#A84A4A;" d="M454.226,131.516c-0.312,1.627-0.649,3.161-0.885,4.708
			c-0.144,0.944-0.473,1.441-1.536,1.327c-0.894-0.097-1.803-0.021-2.875-0.021c0.258-1.426,0.494-2.76,0.736-4.091
			c0.972-5.345,1.964-10.688,2.896-16.04c0.118-0.693,0.387-0.885,1.013-0.868c0.863,0.024,1.729,0.006,2.639,0.006
			c-0.047,0.833-0.083,1.488-0.14,2.468c0.433-0.42,0.624-0.693,0.888-0.848c1.007-0.596,1.978-1.468,3.068-1.662
			c2.634-0.47,4.38,0.814,4.844,3.457c0.679,3.836-0.818,8.502-4.117,10.753c-1.585,1.083-3.29,1.53-5.188,1.064
			C455.195,131.676,454.813,131.625,454.226,131.516z M460.67,122.359c0-0.211,0.004-0.423,0-0.632
			c-0.014-0.859-0.254-1.641-1.097-1.998c-0.88-0.373-1.714-0.045-2.282,0.628c-0.553,0.656-1.104,1.412-1.342,2.216
			c-0.479,1.605-0.735,3.275-1.098,4.917c-0.153,0.681,0.248,0.969,0.782,1.158c1.237,0.434,2.441,0,3.373-1.278
			C460.093,125.885,460.624,124.198,460.67,122.359z"/>
		<path style="fill-rule:evenodd;clip-rule:evenodd;fill:#A84A4A;" d="M419.611,131.536c1.382-7.243,2.728-14.291,4.082-21.379
			c1.335,0,2.588,0,4.014,0c-0.521,2.767-1.031,5.497-1.602,8.541c0.483-0.409,0.74-0.616,0.983-0.837
			c1.147-1.037,2.474-1.56,4.036-1.479c1.729,0.091,3.025,1.174,2.975,2.906c-0.058,2.02-0.375,4.039-0.673,6.044
			c-0.265,1.766-0.678,3.511-0.989,5.271c-0.113,0.643-0.337,0.995-1.078,0.949c-0.974-0.06-1.953-0.016-3.127-0.016
			c0.287-1.61,0.555-3.075,0.81-4.542c0.306-1.762,0.681-3.517,0.863-5.292c0.062-0.604-0.198-1.454-0.629-1.846
			c-0.633-0.58-1.467-0.234-2.105,0.288c-1.338,1.096-1.769,2.671-2.111,4.253c-0.464,2.123-0.859,4.262-1.229,6.402
			c-0.1,0.58-0.321,0.764-0.885,0.746C421.896,131.514,420.85,131.536,419.611,131.536z"/>
		<path style="fill-rule:evenodd;clip-rule:evenodd;fill:#A84A4A;" d="M481.968,135.018c1.732-0.781,3.345-1.654,4.276-3.33
			c0.263-0.477,0.461-1.125,0.373-1.641c-0.693-4.111-1.465-8.21-2.208-12.315c-0.059-0.331-0.075-0.67-0.129-1.172
			c1.3,0,2.485-0.051,3.659,0.043c0.239,0.019,0.58,0.571,0.619,0.906c0.27,2.335,0.47,4.679,0.699,7.018
			c0.072,0.729,0.162,1.454,0.465,2.244c0.155-0.351,0.326-0.699,0.46-1.057c1.037-2.757,2.087-5.509,3.086-8.281
			c0.241-0.67,0.591-0.945,1.304-0.912c1.005,0.049,2.012,0.014,3.104,0.014c-0.077,0.312-0.09,0.451-0.146,0.568
			c-2.362,4.898-4.637,9.841-7.138,14.668c-1.367,2.638-3.287,4.911-6.123,6.181c-1.177,0.528-1.223,0.511-1.611-0.695
			C482.423,136.531,482.21,135.8,481.968,135.018z"/>
		<path style="fill-rule:evenodd;clip-rule:evenodd;fill:#A84A4A;" d="M449.61,122.583c-0.189,3.448-1.396,6.359-4.479,8.212
			c-1.873,1.126-3.937,1.323-5.993,0.677c-2.216-0.695-3.349-2.422-3.562-4.65c-0.331-3.457,1.091-7.567,4.583-9.533
			c1.723-0.968,3.573-1.25,5.488-0.765C448.313,117.202,449.765,119.471,449.61,122.583z M445.703,122.597
			c-0.063-0.025-0.127-0.049-0.189-0.074c-0.024-0.42-0.019-0.843-0.08-1.256c-0.266-1.786-1.944-2.454-3.38-1.338
			c-0.327,0.254-0.638,0.567-0.859,0.916c-1.161,1.847-1.694,3.88-1.309,6.03c0.117,0.647,0.716,1.382,1.3,1.731
			c0.72,0.429,1.597,0.144,2.209-0.49c0.386-0.397,0.794-0.846,0.981-1.35C444.878,125.398,445.268,123.989,445.703,122.597z"/>
		<path style="fill-rule:evenodd;clip-rule:evenodd;fill:#A84A4A;" d="M484.971,110.061c-0.112,0.465-0.282,0.93-0.333,1.411
			c-0.112,1.09-0.472,1.672-1.769,1.503c-1.106-0.145-1.782,0.715-2.209,1.652c-0.238,0.526-0.329,1.12-0.526,1.823
			c0.991,0.051,1.849,0.094,2.894,0.148c-0.146,0.859-0.224,1.684-0.457,2.462c-0.067,0.219-0.591,0.409-0.913,0.422
			c-2.026,0.092-2.052,0.069-2.444,2.097c-0.629,3.268-1.22,6.543-1.84,9.881c-1.347,0-2.653,0-4.034,0
			c0.733-3.969,1.45-7.85,2.192-11.875c-0.674-0.05-1.212-0.09-1.892-0.14c0.154-0.847,0.212-1.657,0.482-2.388
			c0.1-0.272,0.696-0.478,1.078-0.497c0.671-0.038,0.938-0.253,1.122-0.942c0.301-1.138,0.694-2.293,1.284-3.303
			C478.936,110.043,482.074,108.973,484.971,110.061z"/>
		<path style="fill-rule:evenodd;clip-rule:evenodd;fill:#A84A4A;" d="M418.491,119.749c-0.873-0.165-1.624-0.371-2.385-0.437
			c-0.918-0.079-1.836,0.104-2.184,1.089c-0.337,0.958,0.396,1.47,1.086,1.936c0.64,0.433,1.325,0.815,1.903,1.32
			c2.285,2.001,2.066,5.369-0.509,7.005c-2.474,1.573-5.142,1.408-7.798,0.489c-0.226-0.079-0.463-0.652-0.403-0.935
			c0.15-0.712,0.464-1.391,0.731-2.139c0.809,0.239,1.558,0.499,2.324,0.671c0.473,0.104,1.038,0.231,1.446,0.065
			c0.566-0.229,1.298-0.636,1.444-1.124c0.144-0.476-0.243-1.229-0.602-1.709c-0.338-0.455-0.94-0.718-1.433-1.055
			c-1.366-0.931-2.471-2.068-2.332-3.855c0.162-2.099,1.358-3.499,3.31-4.225c1.801-0.673,3.651-0.601,5.497-0.181
			c0.547,0.125,0.884,0.36,0.589,1.033C418.897,118.336,418.729,119.02,418.491,119.749z"/>
		<path style="fill-rule:evenodd;clip-rule:evenodd;fill:#A84A4A;" d="M472.241,116.538c-0.363,1.984-0.679,3.737-1.01,5.488
			c-0.533,2.827-1.102,5.647-1.601,8.479c-0.134,0.748-0.375,1.114-1.207,1.051c-0.971-0.074-1.955-0.019-3.08-0.019
			c0.416-2.191,0.807-4.25,1.197-6.309c0.495-2.618,1.012-5.233,1.468-7.861c0.108-0.622,0.378-0.843,0.965-0.833
			C469.986,116.548,470.998,116.538,472.241,116.538z"/>
		<path style="fill-rule:evenodd;clip-rule:evenodd;fill:#A84A4A;" d="M470.797,114.657c-1.18-0.005-1.92-0.778-1.92-2.005
			c0.001-1.402,1.001-2.419,2.354-2.397c1.148,0.019,1.976,0.869,1.963,2.018C473.178,113.646,472.153,114.664,470.797,114.657z"/>
	</g>
</g>
<rect id="_x3C_Slice_x3E_" x="44" y="43" style="fill-rule:evenodd;clip-rule:evenodd;fill:none;" width="509" height="213"/>
</svg>
