<?xml version="1.0" encoding="iso-8859-1"?>
<!-- Generator: Adobe Illustrator 16.0.0, SVG Export Plug-In . SVG Version: 6.00 Build 0)  -->
<!DOCTYPE svg PUBLIC "-//W3C//DTD SVG 1.1//EN" "http://www.w3.org/Graphics/SVG/1.1/DTD/svg11.dtd">
<svg version="1.1" id="Layer_1" xmlns="http://www.w3.org/2000/svg" xmlns:xlink="http://www.w3.org/1999/xlink" x="0px" y="0px"
	 width="480px" height="520px" viewBox="0 0 480 520" style="enable-background:new 0 0 480 520;" xml:space="preserve">
<g id="Layer_1_1_">
	<path style="fill:#635C4A;" d="M479.552,151.994l-98.589-98.893L380,53.712v-0.386l-87.016-20.409
		c-10.996,6.456-30.219,10.746-52.334,10.746c-22.226,0-41.323-4.333-52.29-10.842L100,53.327v0.386l-0.907-0.611L0.708,151.994
		l78.093,78.941L119,190.143V487h242V191.699l39.557,39.236L479.552,151.994z"/>
	<g id="Layer_2" style="display:none;">
		<g style="display:inline;">
			<path d="M160.675,231c1.513,0.697,3.134,1.229,4.504,2.141c1.112,0.74,1.958,1.902,2.847,2.941
				c0.342,0.398,0.474,0.975,0.723,1.518c0.536-0.068,1.014-0.13,1.805-0.231c-0.736,14.765-1.468,29.408-2.21,44.285
				c-2.769-0.502-5.45-0.969-8.126-1.473c-6.623-1.246-13.243-2.512-19.866-3.763c-0.141-0.026-0.296,0.019-0.444,0.029
				c0-0.103,0-0.201,0-0.302c0.111-0.274,0.285-0.543,0.322-0.826c1.126-8.571,2.199-17.148,3.369-25.714
				c0.633-4.633-0.43-3.932,4.334-5.297c1.621-0.465,2.436-1.256,2.901-2.904c1.357-4.807,3.745-8.844,8.938-10.406
				C160.072,231,160.374,231,160.675,231z M161.791,254.822c0.451-1.365,0.832-2.817,1.41-4.186
				c0.555-1.312-0.059-1.679-1.162-1.939c-2.811-0.666-5.482-0.23-8.04,0.986c-4.901,2.334-7.311,9.998-1.829,14.053
				c0.561,0.414,1.062,0.916,1.559,1.41c0.812,0.812,1.211,1.805,0.621,2.854c-0.645,1.146-1.774,1.034-2.794,0.621
				c-1.23-0.497-2.401-1.141-3.598-1.721c-2.06,4.172-1.21,6.049,3.233,7.15c4.281,1.062,7.98-0.351,9.539-3.645
				c1.932-4.086,0.9-7.971-2.846-10.724c-0.646-0.476-1.291-0.95-1.928-1.438c-0.89-0.686-1.406-1.7-0.816-2.617
				c0.432-0.671,1.466-1.27,2.266-1.317C158.768,254.229,160.156,254.604,161.791,254.822z M161.494,233.074
				c-4.342-1.795-9.195,5.352-9.259,9.799c1.126-0.341,2.237-0.618,3.294-1.033c0.338-0.133,0.664-0.595,0.768-0.969
				C157.148,237.783,158.246,234.869,161.494,233.074z M162.258,234.486c-2.539,1.385-3.609,3.646-4.291,6.322
				c4.979-0.486,6.099-2.037,4.549-6.044C162.499,234.722,162.45,234.691,162.258,234.486z M167.186,238.149
				c-0.483-2.524-1.379-3.626-3.035-3.731c0.189,1.461,0.378,2.902,0.588,4.52C165.66,238.641,166.431,238.393,167.186,238.149z"/>
			<path d="M171.648,237.818c0.336,0.229,0.496,0.285,0.574,0.398c1.319,1.928,3.267,2.479,5.448,2.437
				c0.972-0.019,1.247,0.417,1.377,1.321c0.938,6.527,1.938,13.045,2.909,19.568c0.766,5.14,1.492,10.284,2.295,15.418
				c0.152,0.97,0.063,1.413-1.038,1.638c-4.492,0.911-8.962,1.937-13.718,2.979C170.217,266.932,170.928,252.479,171.648,237.818z"
				/>
			<path d="M258.18,271.566c-0.428,2.132-0.834,4.221-1.267,6.306c-0.552,2.669-0.168,2.134-2.58,2.235
				c-1.14,0.047-2.28,0.008-3.705,0.008c0.36-2.043,0.694-3.982,1.046-5.918c1.376-7.566,2.786-15.129,4.104-22.707
				c0.182-1.042,0.565-1.35,1.531-1.311c1.188,0.05,2.377,0.013,3.668,0.013c-0.058,1.17-0.104,2.136-0.152,3.101
				c0.197,0.148,0.396,0.297,0.597,0.445c0.229-0.438,0.345-1.051,0.703-1.28c1.362-0.871,2.728-2.049,4.231-2.327
				c3.791-0.699,6.492,1.188,6.979,5.002c0.778,6.076-0.808,11.438-5.946,15.271c-2.146,1.602-4.591,2.141-7.244,1.504
				C259.566,271.771,258.975,271.703,258.18,271.566z M267.336,258.543c0-0.351,0.01-0.701-0.002-1.051
				c-0.04-1.227-0.395-2.524-1.65-2.709c-0.988-0.145-2.336,0.218-3.084,0.865c-0.926,0.801-1.646,2.051-2.008,3.244
				c-0.68,2.234-1.023,4.569-1.537,6.856c-0.211,0.945,0.279,1.398,1.062,1.686c1.794,0.654,3.568,0.012,4.917-1.879
				C266.525,263.467,267.273,261.109,267.336,258.543z"/>
			<path d="M208.837,271.568c1.965-10.293,3.89-20.369,5.819-30.482c1.947,0,3.732,0,5.723,0c-0.746,3.979-1.475,7.861-2.29,12.211
				c0.724-0.627,1.091-0.935,1.446-1.254c1.642-1.476,3.542-2.191,5.767-2.064c2.444,0.139,4.259,1.705,4.186,4.191
				c-0.083,2.83-0.519,5.658-0.941,8.465c-0.387,2.566-0.995,5.1-1.435,7.659c-0.168,0.979-0.592,1.349-1.591,1.294
				c-1.384-0.076-2.774-0.02-4.41-0.02c0.424-2.334,0.814-4.43,1.182-6.529c0.438-2.51,0.968-5.012,1.217-7.541
				c0.083-0.852-0.335-2.241-0.946-2.55c-0.722-0.364-2.103-0.12-2.842,0.384c-2.086,1.422-2.631,3.814-3.13,6.119
				c-0.646,2.977-1.206,5.973-1.723,8.977c-0.147,0.861-0.44,1.197-1.336,1.158C212.044,271.52,210.551,271.568,208.837,271.568z"/>
			<path d="M308.82,264.734c0.396-1.062,0.787-2.125,1.188-3.186c1.29-3.412,2.604-6.816,3.861-10.24
				c0.279-0.766,0.667-1.148,1.511-1.127c1.524,0.04,3.054,0.012,4.478,0.012c0.109,0.313,0.156,0.375,0.141,0.406
				c-3.943,8.299-7.023,17.039-12.467,24.57c-1.815,2.516-4.08,4.52-6.988,5.748c-0.98,0.414-1.457,0.262-1.727-0.809
				c-0.291-1.154-0.728-2.273-1.138-3.525c0.847-0.445,1.773-0.76,2.474-1.348c1.324-1.109,2.599-2.311,3.727-3.616
				c0.411-0.478,0.574-1.401,0.463-2.058c-1.013-5.904-2.078-11.805-3.209-17.688c-0.242-1.268,0.01-1.795,1.35-1.697
				c0.848,0.062,1.701,0.008,2.555,0.012c1.938,0.009,1.962,0.078,2.138,2.012c0.379,4.173,0.808,8.342,1.216,12.512
				C308.532,264.723,308.677,264.729,308.82,264.734z"/>
			<path d="M251.582,258.798c-0.264,4.913-1.977,9.065-6.373,11.708c-2.669,1.605-5.604,1.895-8.538,0.975
				c-3.159-0.99-4.777-3.447-5.084-6.621c-0.475-4.908,1.539-10.777,6.521-13.586c2.453-1.384,5.09-1.786,7.818-1.099
				C249.727,251.131,251.802,254.371,251.582,258.798z M245.993,258.873c-0.154-2.572-0.841-4.07-2.312-4.473
				c-1.688-0.463-3.291,0.404-4.456,2.523c-1.335,2.428-1.923,5.033-1.582,7.806c0.147,1.203,0.624,2.271,1.846,2.698
				c1.294,0.451,2.498,0.121,3.414-0.903c0.527-0.59,1.078-1.244,1.339-1.971C244.911,262.689,245.422,260.771,245.993,258.873z"/>
			<path d="M301.997,240.937c-0.367,1.442-0.709,2.784-1.042,4.09c-4.164,0.186-5.167,1.051-5.746,5.036
				c1.271,0.074,2.534,0.148,3.971,0.232c-0.18,1.176-0.254,2.268-0.553,3.295c-0.104,0.357-0.743,0.76-1.165,0.793
				c-3.251,0.254-3.226,0.232-3.813,3.521c-0.81,4.513-1.664,9.017-2.51,13.583c-1.949,0-3.777,0-5.744,0
				c1.043-5.67,2.066-11.233,3.119-16.958c-0.977-0.069-1.705-0.121-2.66-0.189c0.196-1.162,0.266-2.31,0.633-3.349
				c0.143-0.395,0.972-0.74,1.498-0.76c1.033-0.038,1.42-0.389,1.677-1.435c0.373-1.53,0.905-3.089,1.708-4.435
				C293.467,240.827,297.971,239.416,301.997,240.937z"/>
			<path d="M207.235,254.779c-1.272-0.243-2.341-0.542-3.427-0.63c-1.307-0.106-2.613,0.161-3.085,1.585
				c-0.456,1.375,0.603,2.08,1.585,2.744c0.912,0.615,1.887,1.164,2.706,1.887c3.194,2.814,2.927,7.564-0.65,9.895
				c-3.554,2.312-7.402,2.09-11.241,0.746c-0.316-0.109-0.675-0.859-0.592-1.215c0.248-1.059,0.705-2.068,1.102-3.155
				c1.164,0.347,2.237,0.716,3.337,0.972c0.622,0.146,1.386,0.33,1.912,0.102c0.841-0.365,1.911-0.926,2.181-1.66
				c0.23-0.631-0.382-1.729-0.89-2.421c-0.448-0.61-1.261-0.962-1.923-1.411c-1.991-1.35-3.633-2.975-3.415-5.594
				c0.255-3.061,2.033-5.047,4.886-6.049c2.531-0.891,5.115-0.783,7.693-0.188c0.809,0.188,1.217,0.561,0.795,1.5
				C207.805,252.785,207.569,253.762,207.235,254.779z"/>
			<path d="M274.004,271.568c0.592-3.121,1.146-6.053,1.702-8.986c0.707-3.731,1.442-7.459,2.094-11.201
				c0.154-0.885,0.53-1.205,1.373-1.191c1.44,0.023,2.884,0.006,4.632,0.006c-0.393,2.227-0.725,4.216-1.098,6.197
				c-0.862,4.567-1.773,9.126-2.598,13.7c-0.189,1.062-0.524,1.593-1.715,1.501C277.01,271.486,275.611,271.568,274.004,271.568z"/>
			<path d="M281.805,247.516c-1.691,0.002-2.755-1.084-2.767-2.828c-0.013-1.998,1.399-3.462,3.323-3.444
				c1.645,0.015,2.824,1.204,2.826,2.845C285.189,246.031,283.727,247.514,281.805,247.516z"/>
		</g>
	</g>
</g>
<circle style="fill:#EA9D41;" cx="227.336" cy="184.761" r="35.44"/>
<circle style="fill:#24B681;" cx="286.335" cy="190.949" r="46.971"/>
<circle style="fill:#4FA5DB;" cx="181.09" cy="190.878" r="34.077"/>
<g>
	<path style="fill:#FFFFFF;" d="M153.867,175.094h3.965v3.757h-3.965V175.094z M153.867,181.942h3.965v17.978h-3.965V181.942z"/>
	<path style="fill:#FFFFFF;" d="M162.14,181.942h3.755v2.644l0.07,0.071c0.603-0.996,1.39-1.78,2.366-2.349
		c0.973-0.565,2.051-0.852,3.231-0.852c1.972,0,3.523,0.511,4.66,1.53c1.135,1.02,1.703,2.55,1.703,4.591v12.342h-3.964v-11.302
		c-0.045-1.411-0.348-2.439-0.903-3.075c-0.558-0.637-1.426-0.957-2.608-0.957c-0.673,0-1.276,0.122-1.808,0.365
		c-0.532,0.245-0.984,0.58-1.355,1.008c-0.371,0.431-0.662,0.934-0.869,1.514c-0.209,0.581-0.314,1.193-0.314,1.842v10.605h-3.964
		V181.942L162.14,181.942z"/>
	<path style="fill:#FFFFFF;" d="M180.325,181.942h2.954v-1.495c0-1.133,0.139-2.055,0.419-2.762
		c0.277-0.707,0.648-1.251,1.112-1.636c0.464-0.382,0.991-0.637,1.583-0.765c0.591-0.126,1.211-0.191,1.858-0.191
		c1.276,0,2.202,0.08,2.782,0.242v3.097c-0.255-0.068-0.527-0.122-0.816-0.159c-0.291-0.034-0.633-0.051-1.027-0.051
		c-0.534,0-0.99,0.13-1.373,0.386c-0.384,0.254-0.574,0.752-0.574,1.493v1.841h3.373v2.958h-3.373v15.02h-3.964V184.9h-2.954
		V181.942z"/>
	<path style="fill:#FFFFFF;" d="M201.292,200.406c-1.438,0-2.719-0.239-3.843-0.713c-1.126-0.476-2.077-1.13-2.852-1.964
		c-0.775-0.836-1.367-1.831-1.775-2.991c-0.404-1.157-0.608-2.434-0.608-3.822c0-1.37,0.204-2.631,0.608-3.792
		c0.408-1.159,1-2.155,1.775-2.991c0.774-0.834,1.726-1.487,2.852-1.964c1.124-0.474,2.405-0.712,3.843-0.712
		c1.434,0,2.716,0.238,3.839,0.712c1.125,0.477,2.074,1.13,2.852,1.964c0.775,0.836,1.367,1.832,1.774,2.991
		c0.405,1.161,0.608,2.422,0.608,3.792c0,1.389-0.204,2.665-0.608,3.822c-0.407,1.16-0.999,2.155-1.774,2.991
		c-0.778,0.834-1.727,1.488-2.852,1.964C204.008,200.167,202.726,200.406,201.292,200.406z M201.292,197.277
		c0.88,0,1.644-0.188,2.294-0.555c0.648-0.375,1.18-0.861,1.598-1.46c0.417-0.606,0.725-1.282,0.92-2.038
		c0.198-0.753,0.297-1.522,0.297-2.309c0-0.768-0.099-1.534-0.297-2.298c-0.195-0.764-0.503-1.442-0.92-2.031
		c-0.418-0.595-0.95-1.076-1.598-1.442c-0.651-0.374-1.415-0.559-2.294-0.559c-0.883,0-1.647,0.185-2.295,0.559
		c-0.651,0.366-1.183,0.848-1.602,1.442c-0.417,0.589-0.725,1.268-0.919,2.031c-0.199,0.764-0.297,1.53-0.297,2.298
		c0,0.786,0.099,1.556,0.297,2.309c0.195,0.756,0.503,1.432,0.919,2.038c0.419,0.599,0.95,1.085,1.602,1.46
		C199.645,197.089,200.409,197.277,201.292,197.277z"/>
</g>
<path style="fill:#FFFFFF;" d="M235.661,200.163h-16.62c0.022-2.017,0.509-3.778,1.46-5.286c0.951-1.507,2.249-2.816,3.896-3.927
	c0.787-0.581,1.61-1.144,2.467-1.688c0.857-0.543,1.646-1.132,2.365-1.757c0.716-0.626,1.307-1.305,1.771-2.034
	c0.464-0.73,0.708-1.568,0.73-2.519c0-0.44-0.051-0.911-0.156-1.409c-0.104-0.497-0.308-0.963-0.608-1.392
	c-0.303-0.427-0.718-0.787-1.25-1.076c-0.535-0.29-1.231-0.436-2.089-0.436c-0.787,0-1.442,0.155-1.963,0.47
	c-0.521,0.311-0.94,0.741-1.251,1.284c-0.314,0.547-0.546,1.189-0.696,1.93c-0.15,0.742-0.238,1.543-0.261,2.4h-3.963
	c0-1.344,0.177-2.592,0.537-3.738c0.36-1.146,0.9-2.136,1.619-2.974c0.718-0.832,1.592-1.488,2.625-1.964
	c1.03-0.476,2.229-0.713,3.596-0.713c1.485,0,2.725,0.243,3.721,0.73c0.996,0.486,1.802,1.104,2.417,1.845
	c0.614,0.741,1.05,1.545,1.304,2.416c0.255,0.869,0.382,1.697,0.382,2.485c0,0.972-0.15,1.855-0.452,2.642
	c-0.3,0.79-0.708,1.511-1.217,2.173c-0.509,0.662-1.09,1.269-1.737,1.827c-0.648,0.556-1.322,1.076-2.018,1.563
	c-0.696,0.486-1.389,0.95-2.085,1.392c-0.696,0.442-1.338,0.88-1.929,1.318c-0.591,0.441-1.107,0.9-1.548,1.375
	c-0.441,0.476-0.741,0.979-0.902,1.512h11.855V200.163L235.661,200.163z"/>
<g>
	<path style="fill:#FFFFFF;" d="M266.346,199.223c0,2.71-0.76,4.736-2.277,6.067c-1.521,1.335-3.705,1.999-6.553,1.999
		c-0.906,0-1.815-0.094-2.731-0.28c-0.916-0.183-1.748-0.497-2.505-0.936c-0.752-0.441-1.383-1.022-1.893-1.74
		c-0.512-0.719-0.812-1.596-0.906-2.644h3.965c0.115,0.561,0.314,1.011,0.593,1.358c0.276,0.349,0.606,0.619,0.989,0.815
		c0.382,0.197,0.807,0.329,1.271,0.384c0.462,0.058,0.951,0.086,1.46,0.086c1.598,0,2.77-0.394,3.512-1.181
		c0.741-0.789,1.112-1.926,1.112-3.409v-2.744h-0.067c-0.559,0.996-1.315,1.771-2.276,2.328c-0.962,0.558-2.002,0.836-3.113,0.836
		c-1.438,0-2.659-0.25-3.667-0.748c-1.011-0.498-1.846-1.184-2.504-2.052c-0.662-0.868-1.145-1.87-1.443-3.007
		c-0.303-1.138-0.453-2.355-0.453-3.65c0-1.205,0.188-2.354,0.558-3.444c0.371-1.089,0.903-2.045,1.599-2.866
		c0.697-0.826,1.549-1.479,2.557-1.966c1.007-0.486,2.15-0.73,3.423-0.73c1.138,0,2.18,0.239,3.129,0.713
		c0.952,0.476,1.683,1.223,2.194,2.244h0.067v-2.471h3.964v17.038H266.346z M257.547,197.032c0.88,0,1.631-0.181,2.244-0.537
		c0.613-0.363,1.111-0.838,1.494-1.426c0.382-0.592,0.662-1.262,0.835-2.018c0.173-0.753,0.261-1.515,0.261-2.277
		c0-0.765-0.093-1.507-0.277-2.226c-0.187-0.718-0.47-1.357-0.852-1.912c-0.382-0.554-0.883-0.996-1.497-1.321
		c-0.612-0.325-1.351-0.487-2.208-0.487c-0.88,0-1.621,0.185-2.223,0.559c-0.604,0.367-1.094,0.848-1.461,1.443
		c-0.373,0.588-0.641,1.262-0.801,2.015c-0.162,0.752-0.244,1.502-0.244,2.244c0,0.74,0.095,1.465,0.277,2.172
		c0.188,0.708,0.471,1.339,0.852,1.893c0.384,0.558,0.869,1.011,1.461,1.358C256.001,196.856,256.712,197.032,257.547,197.032z"/>
	<path style="fill:#FFFFFF;" d="M270.343,182.186h3.722v3.478h0.069c0.115-0.486,0.339-0.962,0.677-1.426
		c0.338-0.463,0.742-0.886,1.217-1.267c0.475-0.386,1.005-0.69,1.582-0.923c0.58-0.232,1.172-0.349,1.773-0.349
		c0.465,0,0.783,0.016,0.955,0.037c0.178,0.022,0.354,0.047,0.542,0.068v3.825c-0.28-0.045-0.563-0.088-0.854-0.125
		c-0.289-0.033-0.572-0.051-0.852-0.051c-0.672,0-1.304,0.136-1.895,0.402c-0.592,0.266-1.109,0.659-1.549,1.183
		c-0.44,0.521-0.789,1.162-1.045,1.93c-0.254,0.763-0.381,1.645-0.381,2.639v8.556h-3.964v-17.977H270.343z"/>
	<path style="fill:#FFFFFF;" d="M290.197,200.648c-1.438,0-2.719-0.237-3.842-0.712c-1.127-0.477-2.08-1.131-2.854-1.963
		c-0.774-0.837-1.365-1.832-1.774-2.992c-0.402-1.158-0.606-2.434-0.606-3.823c0-1.369,0.204-2.631,0.606-3.791
		c0.409-1.16,1-2.156,1.774-2.991c0.774-0.834,1.728-1.488,2.854-1.964c1.123-0.474,2.403-0.713,3.842-0.713
		c1.435,0,2.715,0.239,3.84,0.713c1.126,0.476,2.072,1.13,2.852,1.964c0.775,0.835,1.366,1.831,1.774,2.991
		c0.403,1.16,0.608,2.422,0.608,3.791c0,1.39-0.205,2.665-0.608,3.823c-0.408,1.16-0.999,2.155-1.774,2.992
		c-0.777,0.832-1.726,1.486-2.852,1.963C292.912,200.411,291.632,200.648,290.197,200.648z M290.197,197.52
		c0.88,0,1.644-0.188,2.295-0.555c0.646-0.375,1.181-0.86,1.599-1.459c0.417-0.607,0.726-1.283,0.921-2.038
		c0.197-0.754,0.297-1.522,0.297-2.31c0-0.767-0.1-1.533-0.297-2.297c-0.195-0.764-0.504-1.443-0.921-2.031
		c-0.418-0.596-0.952-1.076-1.599-1.443c-0.651-0.374-1.415-0.559-2.295-0.559c-0.885,0-1.646,0.185-2.295,0.559
		c-0.651,0.367-1.184,0.848-1.603,1.443c-0.416,0.588-0.726,1.268-0.921,2.031c-0.197,0.764-0.296,1.53-0.296,2.297
		c0,0.787,0.099,1.556,0.296,2.31c0.195,0.755,0.505,1.431,0.921,2.038c0.419,0.599,0.95,1.084,1.603,1.459
		C288.551,197.332,289.312,197.52,290.197,197.52z"/>
	<path style="fill:#FFFFFF;" d="M300.939,182.186h4.209l3.512,13.421h0.064l3.373-13.421h4l3.233,13.421h0.069l3.649-13.421h4.034
		l-5.632,17.978h-4.068l-3.339-13.351h-0.066l-3.306,13.351h-4.172L300.939,182.186z"/>
</g>
<rect x="146.104" y="105.321" style="fill:none;" width="211.5" height="49.295"/>
<g style="enable-background:new    ;">
	<path style="fill:#FFFFFF;" d="M146.537,116.34h2.853v17.865h-2.853V116.34z"/>
	<path style="fill:#FFFFFF;" d="M154.719,128.476c0,0.5,0.07,0.984,0.212,1.451c0.142,0.466,0.354,0.875,0.638,1.226
		c0.284,0.35,0.642,0.629,1.076,0.838c0.435,0.208,0.951,0.313,1.552,0.313c0.833,0,1.505-0.18,2.014-0.538
		c0.509-0.359,0.888-0.897,1.139-1.614h2.702c-0.15,0.7-0.409,1.326-0.775,1.877c-0.368,0.55-0.81,1.013-1.326,1.388
		c-0.518,0.376-1.098,0.659-1.739,0.851c-0.643,0.191-1.313,0.288-2.014,0.288c-1.018,0-1.919-0.167-2.703-0.5
		c-0.784-0.334-1.447-0.801-1.989-1.402c-0.542-0.6-0.95-1.317-1.227-2.151c-0.274-0.834-0.412-1.751-0.412-2.753
		c0-0.917,0.146-1.788,0.438-2.614c0.292-0.825,0.709-1.551,1.251-2.176s1.197-1.122,1.964-1.489
		c0.767-0.367,1.634-0.551,2.602-0.551c1.018,0,1.932,0.213,2.74,0.639c0.81,0.425,1.481,0.988,2.015,1.689s0.921,1.505,1.164,2.414
		c0.242,0.91,0.305,1.848,0.188,2.816H154.719z M161.375,126.599c-0.034-0.45-0.13-0.884-0.288-1.301
		c-0.159-0.417-0.375-0.78-0.65-1.088s-0.609-0.559-1.001-0.751c-0.392-0.191-0.83-0.287-1.314-0.287
		c-0.5,0-0.955,0.086-1.363,0.262c-0.409,0.175-0.76,0.417-1.051,0.726c-0.292,0.309-0.526,0.671-0.7,1.088
		c-0.175,0.417-0.272,0.867-0.288,1.351H161.375z"/>
	<path style="fill:#FFFFFF;" d="M165.103,121.269h2.152v-3.878h2.853v3.878h2.577v2.127h-2.577v6.905
		c0,0.301,0.011,0.56,0.037,0.776c0.025,0.217,0.083,0.4,0.175,0.551c0.092,0.149,0.229,0.262,0.413,0.337
		c0.184,0.075,0.434,0.113,0.751,0.113c0.2,0,0.4-0.004,0.601-0.013c0.199-0.008,0.4-0.037,0.6-0.088v2.202
		c-0.317,0.034-0.626,0.067-0.926,0.101c-0.3,0.033-0.609,0.05-0.925,0.05c-0.751,0-1.356-0.072-1.814-0.213
		c-0.459-0.142-0.818-0.351-1.077-0.625c-0.258-0.275-0.434-0.622-0.525-1.039c-0.092-0.417-0.146-0.892-0.163-1.426v-7.631h-2.152
		V121.269z"/>
	<path style="fill:#FFFFFF;" d="M181.692,121.269h2.702v1.801h0.075c0.218-0.317,0.451-0.608,0.702-0.875
		c0.25-0.267,0.529-0.492,0.838-0.676c0.308-0.183,0.663-0.329,1.063-0.438c0.4-0.107,0.859-0.163,1.375-0.163
		c0.784,0,1.515,0.175,2.19,0.525c0.675,0.351,1.155,0.893,1.439,1.626c0.483-0.666,1.042-1.192,1.676-1.576
		c0.633-0.383,1.427-0.576,2.377-0.576c1.368,0,2.431,0.334,3.19,1.001c0.759,0.668,1.138,1.786,1.138,3.353v8.933h-2.852v-7.556
		c0-0.517-0.017-0.989-0.05-1.414c-0.034-0.425-0.129-0.792-0.288-1.101c-0.158-0.309-0.396-0.546-0.713-0.713
		c-0.316-0.166-0.75-0.25-1.301-0.25c-0.968,0-1.667,0.299-2.101,0.9c-0.435,0.601-0.651,1.451-0.651,2.552v7.582h-2.853v-8.308
		c0-0.9-0.163-1.58-0.488-2.039c-0.325-0.458-0.921-0.688-1.788-0.688c-0.368,0-0.722,0.075-1.064,0.225
		c-0.341,0.15-0.642,0.367-0.9,0.65c-0.259,0.284-0.467,0.633-0.626,1.05c-0.158,0.417-0.237,0.892-0.237,1.426v7.682h-2.852
		V121.269z"/>
	<path style="fill:#FFFFFF;" d="M205.688,128.476c0,0.5,0.071,0.984,0.212,1.451c0.142,0.466,0.354,0.875,0.638,1.226
		c0.284,0.35,0.642,0.629,1.076,0.838c0.434,0.208,0.95,0.313,1.551,0.313c0.834,0,1.506-0.18,2.014-0.538
		c0.509-0.359,0.889-0.897,1.139-1.614h2.702c-0.15,0.7-0.41,1.326-0.776,1.877c-0.367,0.55-0.809,1.013-1.326,1.388
		c-0.518,0.376-1.097,0.659-1.739,0.851c-0.642,0.191-1.313,0.288-2.014,0.288c-1.017,0-1.918-0.167-2.702-0.5
		c-0.784-0.334-1.447-0.801-1.989-1.402c-0.542-0.6-0.951-1.317-1.226-2.151c-0.275-0.834-0.413-1.751-0.413-2.753
		c0-0.917,0.146-1.788,0.438-2.614c0.292-0.825,0.709-1.551,1.251-2.176c0.542-0.625,1.196-1.122,1.964-1.489
		c0.767-0.367,1.635-0.551,2.602-0.551c1.017,0,1.931,0.213,2.74,0.639c0.809,0.425,1.48,0.988,2.014,1.689
		c0.534,0.701,0.922,1.505,1.164,2.414c0.242,0.91,0.305,1.848,0.188,2.816H205.688z M212.343,126.599
		c-0.034-0.45-0.129-0.884-0.288-1.301c-0.158-0.417-0.375-0.78-0.65-1.088c-0.275-0.309-0.609-0.559-1-0.751
		c-0.393-0.191-0.83-0.287-1.314-0.287c-0.5,0-0.955,0.086-1.364,0.262c-0.409,0.175-0.759,0.417-1.051,0.726
		c-0.292,0.309-0.525,0.671-0.701,1.088c-0.175,0.417-0.271,0.867-0.288,1.351H212.343z"/>
	<path style="fill:#FFFFFF;" d="M236.289,133.53c0,1.951-0.546,3.407-1.639,4.366c-1.093,0.958-2.665,1.438-4.716,1.438
		c-0.651,0-1.305-0.067-1.964-0.2c-0.659-0.134-1.26-0.36-1.801-0.675c-0.542-0.318-0.997-0.735-1.364-1.251
		c-0.368-0.518-0.584-1.151-0.651-1.902h2.853c0.083,0.4,0.226,0.727,0.425,0.977c0.201,0.25,0.438,0.446,0.714,0.587
		c0.275,0.142,0.579,0.233,0.913,0.275c0.334,0.042,0.684,0.063,1.051,0.063c1.151,0,1.993-0.284,2.527-0.851
		c0.534-0.568,0.801-1.385,0.801-2.453v-1.977h-0.05c-0.4,0.717-0.947,1.276-1.639,1.677c-0.692,0.401-1.438,0.6-2.24,0.6
		c-1.034,0-1.914-0.179-2.639-0.538c-0.726-0.358-1.326-0.851-1.802-1.477c-0.476-0.626-0.822-1.347-1.039-2.165
		c-0.217-0.817-0.325-1.692-0.325-2.626c0-0.867,0.134-1.693,0.4-2.478c0.267-0.784,0.651-1.471,1.151-2.063
		c0.5-0.592,1.114-1.063,1.839-1.415c0.726-0.35,1.546-0.525,2.464-0.525c0.818,0,1.569,0.171,2.252,0.514
		c0.684,0.342,1.209,0.88,1.577,1.614h0.05v-1.777h2.853V133.53z M229.958,131.954c0.634,0,1.172-0.129,1.614-0.389
		c0.441-0.257,0.801-0.6,1.076-1.026c0.276-0.425,0.476-0.909,0.601-1.451c0.125-0.542,0.188-1.088,0.188-1.639
		c0-0.551-0.066-1.084-0.2-1.602c-0.134-0.517-0.338-0.976-0.613-1.376c-0.274-0.4-0.634-0.716-1.076-0.951
		c-0.442-0.234-0.972-0.35-1.589-0.35c-0.634,0-1.168,0.134-1.601,0.399c-0.434,0.267-0.784,0.613-1.051,1.039
		c-0.268,0.425-0.459,0.909-0.576,1.451c-0.117,0.542-0.174,1.08-0.174,1.614s0.066,1.054,0.2,1.564
		c0.133,0.509,0.338,0.963,0.613,1.364s0.626,0.726,1.051,0.976S229.358,131.954,229.958,131.954z"/>
	<path style="fill:#FFFFFF;" d="M239.166,121.269h2.678v2.502h0.049c0.084-0.351,0.247-0.692,0.488-1.026
		c0.242-0.333,0.535-0.638,0.876-0.913c0.342-0.275,0.723-0.496,1.138-0.663c0.418-0.167,0.843-0.251,1.276-0.251
		c0.333,0,0.563,0.009,0.688,0.025c0.125,0.017,0.255,0.034,0.389,0.05v2.752c-0.202-0.032-0.405-0.062-0.612-0.087
		c-0.211-0.025-0.415-0.037-0.614-0.037c-0.483,0-0.938,0.096-1.362,0.287c-0.427,0.192-0.797,0.476-1.116,0.851
		c-0.315,0.375-0.566,0.838-0.749,1.389c-0.185,0.55-0.276,1.184-0.276,1.901v6.155h-2.852V121.269z"/>
	<path style="fill:#FFFFFF;" d="M253.452,134.556c-1.033,0-1.955-0.17-2.764-0.514c-0.811-0.341-1.492-0.812-2.053-1.413
		c-0.56-0.601-0.983-1.318-1.274-2.152c-0.293-0.834-0.438-1.752-0.438-2.752c0-0.985,0.146-1.894,0.438-2.728
		c0.291-0.834,0.715-1.551,1.274-2.152c0.561-0.6,1.242-1.071,2.053-1.413c0.809-0.342,1.73-0.514,2.764-0.514
		c1.035,0,1.957,0.171,2.767,0.514c0.809,0.342,1.492,0.813,2.052,1.413c0.559,0.601,0.982,1.318,1.275,2.152
		c0.291,0.834,0.438,1.743,0.438,2.728c0,1-0.146,1.918-0.438,2.752c-0.293,0.834-0.717,1.551-1.275,2.152
		c-0.56,0.6-1.243,1.072-2.052,1.413C255.409,134.385,254.487,134.556,253.452,134.556z M253.452,132.304
		c0.635,0,1.185-0.133,1.652-0.4c0.467-0.267,0.852-0.618,1.151-1.052c0.301-0.433,0.521-0.921,0.663-1.463
		c0.14-0.542,0.213-1.096,0.213-1.664c0-0.55-0.073-1.102-0.213-1.652c-0.143-0.55-0.362-1.038-0.663-1.463
		c-0.3-0.426-0.685-0.772-1.151-1.039c-0.468-0.266-1.018-0.399-1.652-0.399c-0.633,0-1.183,0.134-1.65,0.399
		c-0.468,0.267-0.852,0.613-1.151,1.039c-0.3,0.425-0.521,0.913-0.663,1.463s-0.213,1.102-0.213,1.652
		c0,0.567,0.071,1.122,0.213,1.664c0.142,0.542,0.363,1.03,0.663,1.463c0.3,0.434,0.684,0.785,1.151,1.052
		S252.819,132.304,253.452,132.304z"/>
	<path style="fill:#FFFFFF;" d="M261.185,121.269h3.028l2.526,9.659h0.051l2.427-9.659h2.877l2.326,9.659h0.052l2.627-9.659h2.902
		l-4.055,12.936h-2.927l-2.402-9.608h-0.05l-2.376,9.608h-3.003L261.185,121.269z"/>
	<path style="fill:#FFFFFF;" d="M287.607,121.269h3.027l2.528,9.659h0.048l2.428-9.659h2.877l2.327,9.659h0.052l2.627-9.659h2.902
		l-4.054,12.936h-2.928l-2.402-9.608h-0.051l-2.375,9.608h-3.004L287.607,121.269z"/>
	<path style="fill:#FFFFFF;" d="M308.323,116.34h2.854v2.703h-2.854V116.34z M308.323,121.269h2.854v12.936h-2.854V121.269z"/>
	<path style="fill:#FFFFFF;" d="M312.979,121.269h2.152v-3.878h2.853v3.878h2.575v2.127h-2.575v6.905
		c0,0.301,0.013,0.56,0.037,0.776c0.024,0.217,0.083,0.4,0.175,0.551c0.092,0.149,0.229,0.262,0.413,0.337
		c0.184,0.075,0.433,0.113,0.75,0.113c0.201,0,0.401-0.004,0.602-0.013c0.2-0.008,0.4-0.037,0.599-0.088v2.202
		c-0.314,0.034-0.625,0.067-0.925,0.101c-0.3,0.033-0.609,0.05-0.925,0.05c-0.752,0-1.356-0.072-1.814-0.213
		c-0.46-0.142-0.817-0.351-1.076-0.625s-0.435-0.622-0.524-1.039c-0.093-0.417-0.146-0.892-0.163-1.426v-7.631h-2.152V121.269z"/>
	<path style="fill:#FFFFFF;" d="M322.611,116.34h2.853v6.63h0.051c0.351-0.584,0.871-1.071,1.564-1.463
		c0.691-0.393,1.463-0.589,2.313-0.589c1.418,0,2.536,0.368,3.354,1.102c0.817,0.733,1.226,1.835,1.226,3.302v8.883h-2.852v-8.132
		c-0.035-1.017-0.251-1.755-0.651-2.214c-0.401-0.458-1.025-0.688-1.876-0.688c-0.484,0-0.919,0.086-1.302,0.262
		c-0.384,0.175-0.71,0.417-0.976,0.726c-0.268,0.309-0.476,0.671-0.625,1.088c-0.15,0.417-0.227,0.859-0.227,1.326v7.631h-2.853
		V116.34z"/>
</g>
<g>
	<path style="fill:#24B681;" d="M285.414,151.754c0,0,0.339-0.735,0.788-2.066c0.452-1.327,1.032-3.248,1.438-5.592
		c0.406-2.337,0.658-5.11,0.36-8.018c-0.149-1.451-0.407-2.936-0.844-4.392c-0.208-0.731-0.476-1.449-0.763-2.16
		c-0.293-0.757-0.6-1.477-0.871-2.297c-0.545-1.582-0.949-3.182-1.228-4.783c-0.282-1.597-0.485-3.178-0.567-4.712
		c-0.088-1.533-0.131-3.014-0.076-4.416c0.048-1.4,0.121-2.721,0.26-3.934c0.498-4.859,1.501-7.961,1.501-7.961
		s-0.06,0.809-0.129,2.215c-0.062,1.407-0.142,3.413-0.134,5.809c0.018,1.198,0.021,2.493,0.094,3.857
		c0.079,1.364,0.152,2.8,0.32,4.273c0.172,1.472,0.363,2.988,0.664,4.505c0.307,1.512,0.677,3.043,1.147,4.516
		c0.222,0.713,0.526,1.482,0.806,2.223c0.301,0.78,0.547,1.577,0.748,2.376c0.404,1.598,0.646,3.206,0.713,4.764
		c0.144,3.122-0.343,5.999-0.992,8.362c-0.659,2.368-1.482,4.237-2.127,5.5C285.873,151.087,285.414,151.754,285.414,151.754z"/>
</g>
<path style="fill:#24B681;" d="M287.264,132.526c0,0-1.168-2.89-2.539-3.767c-1.371-0.878-4.483-0.728-4.483-0.728
	s0.352,2.369,2.538,3.768C284.966,133.199,287.264,132.526,287.264,132.526z"/>
<path style="fill:#24B681;" d="M284.596,101.813c0,0,0.026-7.891-2.35-11.261c-2.374-3.369-9.814-5.994-9.814-5.994
	s-1.439,5.888,2.348,11.26C278.566,101.191,284.596,101.813,284.596,101.813z"/>
<path style="fill:#24B681;" d="M285.678,103.388c0,0,1.436-5.284,3.643-7.101c2.21-1.817,7.671-2.204,7.671-2.204
	s-0.119,4.204-3.642,7.101C289.824,104.081,285.678,103.388,285.678,103.388z"/>
<path style="fill:#24B681;" d="M285.557,117.142c0,0,0.729-3.383,2.063-4.603c1.333-1.221,4.769-1.646,4.769-1.646
	s0.062,2.658-2.062,4.603C288.197,117.44,285.557,117.142,285.557,117.142z"/>
<g id="Layer_2_1_" style="display:none;">
	<g style="display:inline;">
		<path style="fill:#B5AD8D;" d="M214.507,255c5.429,2.5,11.243,4.406,16.159,7.68c3.99,2.656,7.024,6.824,10.213,10.553
			c1.225,1.43,1.698,3.496,2.592,5.443c1.924-0.246,3.639-0.467,6.475-0.83c-2.643,52.971-5.266,105.508-7.928,158.875
			c-9.933-1.799-19.553-3.473-29.151-5.277c-23.76-4.477-47.51-9.012-71.271-13.496c-0.503-0.1-1.06,0.062-1.593,0.104
			c0-0.358,0-0.721,0-1.076c0.399-0.988,1.023-1.947,1.156-2.966c4.04-30.753,7.89-61.522,12.087-92.252
			c2.27-16.62-1.542-14.104,15.548-19.003c5.816-1.667,8.738-4.506,10.409-10.42c4.871-17.244,13.436-31.729,32.067-37.332
			C212.348,255,213.429,255,214.507,255z M218.512,340.463c1.619-4.896,2.985-10.105,5.06-15.016
			c1.989-4.705-0.21-6.022-4.169-6.958c-10.083-2.392-19.668-0.827-28.845,3.538c-17.583,8.373-26.227,35.869-6.562,50.415
			c2.011,1.483,3.813,3.286,5.592,5.062c2.915,2.912,4.345,6.471,2.229,10.234c-2.312,4.111-6.366,3.71-10.023,2.229
			c-4.415-1.783-8.616-4.093-12.906-6.174c-7.39,14.967-4.341,21.7,11.599,25.659c15.36,3.812,28.631-1.257,34.223-13.075
			c6.929-14.654,3.229-28.588-10.209-38.471c-2.316-1.707-4.633-3.41-6.917-5.16c-3.191-2.46-5.044-6.1-2.929-9.391
			c1.549-2.406,5.259-4.557,8.128-4.727C207.666,338.333,212.646,339.682,218.512,340.463z M217.446,262.441
			c-15.575-6.44-32.988,19.197-33.216,35.15c4.04-1.223,8.027-2.217,11.818-3.705c1.211-0.478,2.381-2.135,2.752-3.477
			C201.856,279.334,205.795,268.88,217.446,262.441z M220.188,267.506c-9.109,4.969-12.949,13.082-15.396,22.686
			c17.861-1.746,21.88-7.312,16.319-21.688C221.053,268.352,220.877,268.243,220.188,267.506z M237.865,280.648
			c-1.733-9.059-4.946-13.01-10.889-13.387c0.68,5.239,1.355,10.41,2.109,16.211C232.393,282.41,235.157,281.52,237.865,280.648z"/>
		<path style="fill:#404D41;" d="M253.875,279.461c1.206,0.818,1.779,1.021,2.062,1.43c4.731,6.916,11.719,8.893,19.545,8.74
			c3.483-0.064,4.475,1.495,4.938,4.74c3.368,23.416,6.955,46.799,10.438,70.201c2.746,18.436,5.354,36.896,8.232,55.312
			c0.547,3.477,0.229,5.069-3.725,5.871c-16.115,3.271-32.151,6.944-49.215,10.688C248.741,383.905,251.291,332.058,253.875,279.461
			z"/>
	</g>
	<g style="display:inline;">
		<path style="fill:#B5AD8D;" d="M265.909,121.823c-0.517,2.583-1.011,5.115-1.533,7.641c-0.668,3.234-0.204,2.586-3.127,2.709
			c-1.38,0.058-2.763,0.009-4.489,0.009c0.438-2.476,0.842-4.826,1.268-7.171c1.668-9.169,3.377-18.333,4.973-27.516
			c0.219-1.263,0.688-1.636,1.854-1.588c1.439,0.061,2.883,0.016,4.446,0.016c-0.069,1.417-0.128,2.588-0.187,3.757
			c0.24,0.18,0.479,0.36,0.723,0.54c0.275-0.53,0.415-1.273,0.852-1.551c1.652-1.056,3.307-2.483,5.131-2.82
			c4.595-0.847,7.867,1.439,8.457,6.062c0.943,7.363-0.978,13.858-7.207,18.506c-2.6,1.941-5.562,2.594-8.776,1.822
			C267.592,122.071,266.873,121.989,265.909,121.823z M277.006,106.042c0-0.425,0.012-0.85-0.002-1.273
			c-0.049-1.486-0.479-3.059-2-3.283c-1.199-0.175-2.832,0.264-3.736,1.048c-1.123,0.971-1.994,2.485-2.434,3.932
			c-0.824,2.708-1.242,5.537-1.863,8.309c-0.256,1.146,0.34,1.694,1.288,2.041c2.175,0.794,4.323,0.014,5.958-2.277
			C276.023,112.008,276.932,109.151,277.006,106.042z"/>
		<path style="fill:#B5AD8D;" d="M206.117,121.826c2.381-12.472,4.713-24.684,7.052-36.938c2.36,0,4.522,0,6.935,0
			c-0.904,4.821-1.787,9.526-2.775,14.797c0.877-0.76,1.322-1.132,1.753-1.52c1.989-1.788,4.292-2.655,6.988-2.501
			c2.962,0.168,5.161,2.066,5.071,5.079c-0.1,3.43-0.628,6.856-1.141,10.258c-0.469,3.11-1.205,6.18-1.738,9.281
			c-0.203,1.187-0.717,1.634-1.928,1.568c-1.677-0.092-3.361-0.023-5.344-0.023c0.514-2.829,0.986-5.368,1.432-7.912
			c0.53-3.042,1.173-6.073,1.475-9.138c0.101-1.032-0.406-2.716-1.146-3.09c-0.875-0.441-2.548-0.146-3.443,0.465
			c-2.528,1.723-3.188,4.623-3.793,7.415c-0.783,3.607-1.462,7.238-2.088,10.877c-0.179,1.045-0.533,1.452-1.619,1.404
			C210.004,121.767,208.193,121.826,206.117,121.826z"/>
		<path style="fill:#B5AD8D;" d="M327.277,113.545c0.479-1.286,0.953-2.575,1.438-3.859c1.562-4.135,3.155-8.26,4.682-12.409
			c0.34-0.928,0.808-1.392,1.83-1.366c1.849,0.048,3.697,0.014,5.424,0.014c0.135,0.38,0.188,0.455,0.17,0.492
			c-4.778,10.057-8.512,20.646-15.105,29.774c-2.201,3.046-4.945,5.476-8.47,6.965c-1.188,0.502-1.767,0.315-2.091-0.979
			c-0.354-1.401-0.881-2.757-1.379-4.274c1.024-0.542,2.148-0.92,2.996-1.631c1.604-1.347,3.147-2.8,4.516-4.384
			c0.499-0.576,0.695-1.698,0.562-2.491c-1.229-7.157-2.521-14.305-3.891-21.436c-0.295-1.536,0.014-2.175,1.634-2.057
			c1.026,0.076,2.062,0.01,3.097,0.014c2.348,0.011,2.377,0.095,2.59,2.438c0.459,5.057,0.979,10.108,1.473,15.162
			C326.928,113.529,327.104,113.537,327.277,113.545z"/>
		<path style="fill:#B5AD8D;" d="M257.916,106.35c-0.318,5.954-2.396,10.986-7.725,14.188c-3.232,1.945-6.791,2.296-10.346,1.181
			c-3.828-1.203-5.789-4.18-6.16-8.023c-0.575-5.95,1.865-13.062,7.901-16.466c2.973-1.677,6.168-2.165,9.475-1.332
			C255.666,97.06,258.182,100.986,257.916,106.35z M251.143,106.441c-0.187-3.117-1.018-4.932-2.8-5.42
			c-2.046-0.561-3.985,0.49-5.397,3.058c-1.617,2.942-2.329,6.099-1.918,9.458c0.181,1.457,0.758,2.753,2.236,3.27
			c1.568,0.547,3.028,0.146,4.139-1.096c0.641-0.715,1.31-1.508,1.621-2.387C249.832,111.066,250.451,108.741,251.143,106.441z"/>
		<path style="fill:#B5AD8D;" d="M319.008,84.706c-0.443,1.748-0.857,3.374-1.262,4.956c-5.047,0.225-6.262,1.273-6.964,6.103
			c1.541,0.09,3.071,0.18,4.812,0.282c-0.217,1.425-0.308,2.748-0.669,3.993c-0.126,0.433-0.901,0.92-1.411,0.96
			c-3.938,0.308-3.91,0.282-4.623,4.266c-0.979,5.469-2.016,10.927-3.041,16.46c-2.359,0-4.578,0-6.961,0
			c1.264-6.871,2.506-13.615,3.78-20.549c-1.185-0.084-2.067-0.146-3.226-0.229c0.24-1.408,0.322-2.798,0.77-4.058
			c0.17-0.478,1.176-0.897,1.814-0.921c1.252-0.046,1.721-0.471,2.029-1.738c0.451-1.854,1.1-3.743,2.068-5.374
			C308.671,84.574,314.129,82.863,319.008,84.706z"/>
		<path style="fill:#B5AD8D;" d="M204.176,101.48c-1.541-0.294-2.836-0.657-4.152-0.763c-1.583-0.129-3.166,0.195-3.738,1.921
			c-0.553,1.666,0.73,2.521,1.921,3.325c1.105,0.746,2.286,1.411,3.279,2.286c3.871,3.412,3.547,9.167-0.788,11.99
			c-4.307,2.802-8.971,2.531-13.622,0.904c-0.384-0.133-0.817-1.042-0.718-1.472c0.301-1.283,0.855-2.506,1.336-3.824
			c1.41,0.42,2.711,0.866,4.043,1.178c0.754,0.176,1.68,0.4,2.317,0.121c1.019-0.443,2.315-1.122,2.643-2.012
			c0.279-0.765-0.463-2.092-1.078-2.934c-0.544-0.742-1.528-1.166-2.33-1.71c-2.413-1.636-4.402-3.605-4.139-6.779
			c0.31-3.708,2.464-6.116,5.921-7.33c3.067-1.08,6.198-0.949,9.322-0.228c0.98,0.228,1.475,0.679,0.964,1.818
			C204.866,99.064,204.581,100.248,204.176,101.48z"/>
		<path style="fill:#B5AD8D;" d="M285.086,121.826c0.717-3.782,1.391-7.335,2.062-10.89c0.855-4.522,1.75-9.039,2.537-13.574
			c0.188-1.072,0.644-1.46,1.664-1.444c1.746,0.029,3.492,0.007,5.611,0.007c-0.477,2.698-0.878,5.109-1.33,7.51
			c-1.045,5.535-2.148,11.059-3.146,16.602c-0.23,1.285-0.637,1.93-2.078,1.819C288.729,121.728,287.034,121.826,285.086,121.826z"
			/>
		<path style="fill:#B5AD8D;" d="M294.539,92.679c-2.051,0.002-3.338-1.313-3.354-3.427c-0.017-2.421,1.695-4.195,4.026-4.174
			c1.993,0.018,3.422,1.459,3.427,3.447C298.643,90.88,296.868,92.676,294.539,92.679z"/>
	</g>
</g>
</svg>
